<?xml version="1.0" encoding="UTF-8"?>
<svg id="uuid-3296e389-d223-4fc7-8f44-efc9ed28f449" data-name="Layer 1" xmlns="http://www.w3.org/2000/svg" width="1080" height="712" viewBox="0 0 1080 712">
  <defs>
    <style>
      .uuid-98df29eb-7bbc-428c-98f0-770a6bc159e3, .uuid-73537859-0127-4ab0-986a-e9718f49f5b7, .uuid-adf3af3c-fbab-4965-880d-4e0c462537d9, .uuid-02179e04-886b-4596-9b87-69b7d4fdb904 {
        fill: none;
      }

      .uuid-98df29eb-7bbc-428c-98f0-770a6bc159e3, .uuid-73537859-0127-4ab0-986a-e9718f49f5b7, .uuid-adf3af3c-fbab-4965-880d-4e0c462537d9, .uuid-02179e04-886b-4596-9b87-69b7d4fdb904, .uuid-181baf27-5503-4f0a-a4a0-c0308c642e7e {
        stroke: #000;
      }

      .uuid-98df29eb-7bbc-428c-98f0-770a6bc159e3, .uuid-73537859-0127-4ab0-986a-e9718f49f5b7, .uuid-adf3af3c-fbab-4965-880d-4e0c462537d9, .uuid-181baf27-5503-4f0a-a4a0-c0308c642e7e {
        stroke-linecap: round;
        stroke-linejoin: round;
      }

      .uuid-73537859-0127-4ab0-986a-e9718f49f5b7 {
        stroke-dasharray: 0 0 2.962 2.962;
      }

      .uuid-079c754d-b70e-4cb1-8b33-8b24b2666a8c {
        stroke: #a1c2e7;
        stroke-width: 2px;
      }

      .uuid-079c754d-b70e-4cb1-8b33-8b24b2666a8c, .uuid-02179e04-886b-4596-9b87-69b7d4fdb904 {
        stroke-miterlimit: 10;
      }

      .uuid-079c754d-b70e-4cb1-8b33-8b24b2666a8c, .uuid-181baf27-5503-4f0a-a4a0-c0308c642e7e, .uuid-30d49f96-b45e-4605-9b9e-a5ced2a8b27c {
        fill: #fff;
      }

      .uuid-adf3af3c-fbab-4965-880d-4e0c462537d9 {
        stroke-dasharray: 0 0 3.011 3.011;
      }

      .uuid-181baf27-5503-4f0a-a4a0-c0308c642e7e {
        stroke-width: 1.5px;
      }

      .uuid-cb4655d3-dbfe-47f9-93f6-c80ca8867345, .uuid-2d610cbc-4d6d-4b8b-a5ba-78d93ee460df, .uuid-525cb416-fb9b-4b52-9f9d-66bab5a1c895, .uuid-30d49f96-b45e-4605-9b9e-a5ced2a8b27c, .uuid-c6051e14-c1aa-41fb-998d-c7d77674eed1, .uuid-4d3fd094-c681-4248-9ea7-b0d0f97ef834 {
        stroke-width: 0px;
      }

      .uuid-2d610cbc-4d6d-4b8b-a5ba-78d93ee460df {
        fill: #151515;
      }

      .uuid-525cb416-fb9b-4b52-9f9d-66bab5a1c895 {
        fill: #dbe8f5;
      }

      .uuid-c6051e14-c1aa-41fb-998d-c7d77674eed1 {
        fill: #e6e6e6;
      }

      .uuid-4d3fd094-c681-4248-9ea7-b0d0f97ef834 {
        fill: #06c;
      }
    </style>
  </defs>
  <rect class="uuid-c6051e14-c1aa-41fb-998d-c7d77674eed1" x="98.944" y="181.5" width="740.001" height="343.5"/>
  <rect class="uuid-079c754d-b70e-4cb1-8b33-8b24b2666a8c" x="126.446" y="332.219" width="235" height="58.869"/>
  <path class="uuid-4d3fd094-c681-4248-9ea7-b0d0f97ef834" d="M808.946,236.094v253.047h-369.302v-253.047h369.302M810.946,234.094h-373.302v257.047h373.302V234.094h0Z"/>
  <rect class="uuid-30d49f96-b45e-4605-9b9e-a5ced2a8b27c" x="461.226" y="274.5" width="327.22" height="194"/>
  <g>
    <line class="uuid-02179e04-886b-4596-9b87-69b7d4fdb904" x1="361.946" y1="263.5" x2="429.742" y2="263.5"/>
    <polygon class="uuid-cb4655d3-dbfe-47f9-93f6-c80ca8867345" points="428.283 268.486 436.919 263.5 428.283 258.514 428.283 268.486"/>
  </g>
  <g>
    <line class="uuid-02179e04-886b-4596-9b87-69b7d4fdb904" x1="362.973" y1="460.5" x2="430.769" y2="460.5"/>
    <polygon class="uuid-cb4655d3-dbfe-47f9-93f6-c80ca8867345" points="429.31 465.486 437.946 460.5 429.31 455.514 429.31 465.486"/>
  </g>
  <g>
    <line class="uuid-02179e04-886b-4596-9b87-69b7d4fdb904" x1="624.835" y1="456.176" x2="624.835" y2="560"/>
    <polygon class="uuid-cb4655d3-dbfe-47f9-93f6-c80ca8867345" points="619.849 457.635 624.835 449 629.822 457.635 619.849 457.635"/>
  </g>
  <g>
    <polyline class="uuid-02179e04-886b-4596-9b87-69b7d4fdb904" points="812.946 87.999 879.946 87.999 879.946 402.999 775.122 402.999"/>
    <polygon class="uuid-cb4655d3-dbfe-47f9-93f6-c80ca8867345" points="776.581 398.013 767.945 402.999 776.581 407.986 776.581 398.013"/>
  </g>
  <g>
    <line class="uuid-02179e04-886b-4596-9b87-69b7d4fdb904" x1="895.5" y1="434.5" x2="775.122" y2="434.5"/>
    <polygon class="uuid-cb4655d3-dbfe-47f9-93f6-c80ca8867345" points="776.581 429.514 767.945 434.5 776.581 439.486 776.581 429.514"/>
  </g>
  <g>
    <line class="uuid-02179e04-886b-4596-9b87-69b7d4fdb904" x1="243.946" y1="391.461" x2="243.946" y2="423.034"/>
    <polygon class="uuid-cb4655d3-dbfe-47f9-93f6-c80ca8867345" points="238.959 421.575 243.946 430.21 248.932 421.575 238.959 421.575"/>
  </g>
  <g>
    <path class="uuid-cb4655d3-dbfe-47f9-93f6-c80ca8867345" d="M126.857,200.72h2.833l1.36,6.947,1.953-6.947h2.577l1.953,6.947,1.36-6.947h2.737l-2.497,11.205h-2.914l-1.969-7.219-1.984,7.219h-2.914l-2.497-11.205Z"/>
    <path class="uuid-cb4655d3-dbfe-47f9-93f6-c80ca8867345" d="M142.105,207.811c0-2.433,1.857-4.273,4.306-4.273s4.306,1.84,4.306,4.273-1.857,4.274-4.306,4.274-4.306-1.841-4.306-4.274ZM148.188,207.811c0-1.232-.736-2.113-1.777-2.113s-1.776.88-1.776,2.113.736,2.113,1.776,2.113,1.777-.88,1.777-2.113Z"/>
    <path class="uuid-cb4655d3-dbfe-47f9-93f6-c80ca8867345" d="M152.361,203.666h2.593v1.873c.528-1.376,1.265-2.033,2.241-2.033.368.016.544.048.864.208v2.225c-.32-.16-.768-.256-1.216-.256-.769,0-1.473.4-1.889,1.024v5.218h-2.593v-8.259Z"/>
    <path class="uuid-cb4655d3-dbfe-47f9-93f6-c80ca8867345" d="M159.433,200.48l2.593-.4v6.867l2.881-3.281h2.865l-3.361,3.697,3.602,4.562h-3.233l-2.753-3.649v3.649h-2.593v-11.445Z"/>
    <path class="uuid-cb4655d3-dbfe-47f9-93f6-c80ca8867345" d="M169.097,200.528l2.593-.4v4.594c.544-.672,1.44-1.104,2.417-1.104,2.033,0,3.649,1.873,3.649,4.193s-1.697,4.162-3.842,4.162c-.896,0-1.696-.384-2.257-1.056v1.008h-2.561v-11.396ZM175.211,207.795c0-1.168-.849-2.033-1.969-2.033-.641,0-1.137.224-1.553.672v2.753c.4.417.944.656,1.553.656,1.136,0,1.969-.864,1.969-2.049Z"/>
    <path class="uuid-cb4655d3-dbfe-47f9-93f6-c80ca8867345" d="M179.033,207.811c0-2.417,1.793-4.273,4.162-4.273,2.385,0,4.066,1.809,4.066,4.37v.56h-5.683c.24.929.993,1.553,1.937,1.553.688,0,1.265-.24,1.633-.688l1.712,1.425c-1.072.944-2.081,1.329-3.473,1.329-2.433,0-4.354-1.873-4.354-4.274ZM184.859,206.995c-.224-.88-.849-1.44-1.681-1.44-.816,0-1.393.528-1.601,1.44h3.282Z"/>
    <path class="uuid-cb4655d3-dbfe-47f9-93f6-c80ca8867345" d="M188.873,203.666h2.593v1.344c.64-.96,1.537-1.472,2.609-1.472,1.601,0,2.737,1.168,2.737,2.817v5.57h-2.593v-4.818c0-.928-.544-1.537-1.376-1.537-.56,0-1.008.224-1.376.688v5.667h-2.593v-8.259Z"/>
    <path class="uuid-cb4655d3-dbfe-47f9-93f6-c80ca8867345" d="M198.392,207.811c0-2.417,1.857-4.273,4.274-4.273,1.36,0,2.609.544,3.441,1.521l-1.585,1.584c-.528-.624-1.056-.896-1.76-.896-1.024,0-1.793.88-1.793,2.065s.769,2.065,1.793,2.065c.704,0,1.232-.272,1.76-.896l1.585,1.585c-.833.976-2.081,1.521-3.441,1.521-2.417,0-4.274-1.857-4.274-4.274Z"/>
    <path class="uuid-cb4655d3-dbfe-47f9-93f6-c80ca8867345" d="M207.384,200.528l2.593-.4v4.882c.64-.96,1.537-1.472,2.609-1.472,1.601,0,2.737,1.168,2.737,2.817v5.57h-2.593v-4.818c0-.928-.544-1.537-1.376-1.537-.56,0-1.008.224-1.376.688v5.667h-2.593v-11.396Z"/>
  </g>
  <g>
    <path class="uuid-cb4655d3-dbfe-47f9-93f6-c80ca8867345" d="M461.681,257.076l1.409-2.033c1.552,1.088,2.529,1.488,3.633,1.488,1.185,0,1.905-.48,1.905-1.185,0-.656-.384-.976-1.473-1.168l-2.385-.416c-1.777-.304-2.753-1.424-2.753-3.009,0-2.177,1.665-3.537,4.45-3.537,1.729,0,3.441.56,4.594,1.472l-1.393,2.001c-1.088-.833-2.161-1.232-3.346-1.232-1.088,0-1.712.448-1.712,1.056,0,.577.368.865,1.265,1.024l2.241.384c2.097.352,3.201,1.457,3.201,3.169,0,2.193-1.856,3.682-4.786,3.682-1.777,0-3.361-.592-4.85-1.697Z"/>
    <path class="uuid-cb4655d3-dbfe-47f9-93f6-c80ca8867345" d="M473.714,256.1v-3.761h-1.601v-2.001h1.601v-2.289l2.593-.528v2.817h2.209v2.001h-2.209v3.249c0,.736.288.993,1.088.993.304,0,.544-.032,1.057-.176v2.097c-.48.144-1.249.256-1.777.256-1.953,0-2.961-.896-2.961-2.657Z"/>
    <path class="uuid-cb4655d3-dbfe-47f9-93f6-c80ca8867345" d="M479.569,256.228c0-1.521,1.185-2.401,3.217-2.401.592,0,1.185.112,1.921.384v-.672c0-.8-.528-1.2-1.632-1.2-.625,0-1.361.176-2.321.576l-.896-1.809c1.36-.608,2.577-.896,3.793-.896,2.289,0,3.617,1.136,3.617,3.105v5.282h-2.561v-.72c-.72.608-1.408.848-2.289.848-1.681,0-2.85-1.024-2.85-2.497ZM483.219,257.012c.544,0,1.04-.144,1.488-.417v-1.056c-.48-.112-.944-.176-1.424-.176-.849,0-1.329.288-1.329.816s.464.833,1.265.833Z"/>
    <path class="uuid-cb4655d3-dbfe-47f9-93f6-c80ca8867345" d="M490.065,256.1v-3.761h-1.601v-2.001h1.601v-2.289l2.593-.528v2.817h2.209v2.001h-2.209v3.249c0,.736.288.993,1.088.993.304,0,.544-.032,1.057-.176v2.097c-.48.144-1.249.256-1.777.256-1.953,0-2.961-.896-2.961-2.657Z"/>
    <path class="uuid-cb4655d3-dbfe-47f9-93f6-c80ca8867345" d="M495.857,254.483c0-2.417,1.793-4.273,4.162-4.273,2.385,0,4.066,1.809,4.066,4.37v.56h-5.683c.24.929.993,1.553,1.937,1.553.688,0,1.265-.24,1.633-.688l1.712,1.425c-1.072.944-2.081,1.329-3.473,1.329-2.433,0-4.354-1.873-4.354-4.274ZM501.684,253.667c-.224-.88-.849-1.44-1.681-1.44-.816,0-1.393.528-1.601,1.44h3.282Z"/>
    <path class="uuid-cb4655d3-dbfe-47f9-93f6-c80ca8867345" d="M506.674,252.338h-1.713v-2.001h1.713v-1.088c0-1.969,1.168-3.042,3.297-3.042.448,0,1.04.064,1.376.16v2.129c-.464-.08-.705-.096-.993-.096-.736,0-1.088.288-1.088.896v1.041h2.081v2.001h-2.081v6.258h-2.593v-6.258Z"/>
    <path class="uuid-cb4655d3-dbfe-47f9-93f6-c80ca8867345" d="M512.753,255.908v-5.57h2.593v4.818c0,.928.544,1.537,1.376,1.537.56,0,1.008-.224,1.376-.688v-5.666h2.593v8.259h-2.593v-1.345c-.64.96-1.537,1.473-2.609,1.473-1.601,0-2.737-1.168-2.737-2.817Z"/>
    <path class="uuid-cb4655d3-dbfe-47f9-93f6-c80ca8867345" d="M522.705,247.2l2.593-.4v11.797h-2.593v-11.396Z"/>
    <path class="uuid-cb4655d3-dbfe-47f9-93f6-c80ca8867345" d="M526.609,257.076l1.409-2.033c1.552,1.088,2.529,1.488,3.633,1.488,1.185,0,1.905-.48,1.905-1.185,0-.656-.384-.976-1.473-1.168l-2.385-.416c-1.777-.304-2.753-1.424-2.753-3.009,0-2.177,1.665-3.537,4.45-3.537,1.729,0,3.441.56,4.594,1.472l-1.393,2.001c-1.088-.833-2.161-1.232-3.346-1.232-1.088,0-1.712.448-1.712,1.056,0,.577.368.865,1.265,1.024l2.241.384c2.097.352,3.201,1.457,3.201,3.169,0,2.193-1.856,3.682-4.786,3.682-1.777,0-3.361-.592-4.85-1.697Z"/>
    <path class="uuid-cb4655d3-dbfe-47f9-93f6-c80ca8867345" d="M537.584,254.483c0-2.417,1.793-4.273,4.162-4.273,2.386,0,4.066,1.809,4.066,4.37v.56h-5.683c.24.929.993,1.553,1.937,1.553.688,0,1.265-.24,1.633-.688l1.713,1.425c-1.072.944-2.081,1.329-3.474,1.329-2.433,0-4.354-1.873-4.354-4.274ZM543.411,253.667c-.224-.88-.849-1.44-1.681-1.44-.816,0-1.393.528-1.601,1.44h3.282Z"/>
    <path class="uuid-cb4655d3-dbfe-47f9-93f6-c80ca8867345" d="M548.273,256.1v-3.761h-1.601v-2.001h1.601v-2.289l2.593-.528v2.817h2.209v2.001h-2.209v3.249c0,.736.288.993,1.089.993.304,0,.544-.032,1.057-.176v2.097c-.48.144-1.249.256-1.777.256-1.952,0-2.961-.896-2.961-2.657Z"/>
  </g>
  <g>
    <path class="uuid-cb4655d3-dbfe-47f9-93f6-c80ca8867345" d="M483.944,285.574h5.474c2.385,0,3.954,1.553,3.954,3.698,0,2.033-1.568,3.601-3.954,3.601h-2.721v3.906h-2.753v-11.205ZM488.922,290.68c1.121,0,1.665-.608,1.665-1.424,0-.8-.544-1.409-1.648-1.409h-2.241v2.833h2.225Z"/>
    <path class="uuid-cb4655d3-dbfe-47f9-93f6-c80ca8867345" d="M494.055,292.665c0-2.433,1.857-4.273,4.306-4.273s4.306,1.84,4.306,4.273-1.857,4.274-4.306,4.274-4.306-1.841-4.306-4.274ZM500.138,292.665c0-1.232-.736-2.113-1.777-2.113s-1.776.88-1.776,2.113.736,2.113,1.776,2.113,1.777-.88,1.777-2.113Z"/>
    <path class="uuid-cb4655d3-dbfe-47f9-93f6-c80ca8867345" d="M503.943,292.633c0-2.321,1.697-4.162,3.842-4.162.864,0,1.648.352,2.209.992v-4.082l2.593-.4v11.797h-2.561v-1.072c-.544.688-1.457,1.12-2.433,1.12-2.033,0-3.649-1.873-3.649-4.193ZM509.994,294.026v-2.785c-.4-.417-.945-.641-1.537-.641-1.137,0-1.969.865-1.969,2.049,0,1.168.849,2.033,1.969,2.033.624,0,1.136-.224,1.537-.656Z"/>
  </g>
  <g>
    <path class="uuid-cb4655d3-dbfe-47f9-93f6-c80ca8867345" d="M222.851,354.165h4.978c2.225,0,3.745,1.376,3.745,3.394,0,1.457-.864,2.593-2.225,3.073l2.369,4.738h-2.128l-2.161-4.482h-2.657v4.482h-1.92v-11.205ZM227.652,359.351c1.201,0,1.985-.704,1.985-1.776,0-1.089-.784-1.793-1.985-1.793h-2.881v3.569h2.881Z"/>
    <path class="uuid-cb4655d3-dbfe-47f9-93f6-c80ca8867345" d="M232.61,361.368c0-2.369,1.729-4.146,4.034-4.146,2.289,0,4.018,1.777,4.018,4.146s-1.729,4.146-4.018,4.146c-2.305,0-4.034-1.777-4.034-4.146ZM238.885,361.368c0-1.489-.944-2.609-2.241-2.609-1.312,0-2.257,1.121-2.257,2.609,0,1.504.945,2.609,2.257,2.609,1.296,0,2.241-1.104,2.241-2.609Z"/>
    <path class="uuid-cb4655d3-dbfe-47f9-93f6-c80ca8867345" d="M242.466,362.632v-5.282h1.825v4.754c0,1.184.688,1.937,1.761,1.937.72,0,1.328-.32,1.745-.96v-5.73h1.809v8.019h-1.809v-1.296c-.608.944-1.473,1.424-2.545,1.424-1.632,0-2.785-1.185-2.785-2.865Z"/>
    <path class="uuid-cb4655d3-dbfe-47f9-93f6-c80ca8867345" d="M252.834,363.288v-4.498h-1.601v-1.44h1.601v-2.209l1.809-.384v2.593h2.225v1.44h-2.225v4.098c0,.784.304,1.088,1.121,1.088.352,0,.608-.048,1.088-.192v1.521c-.464.144-1.072.224-1.553.224-1.616,0-2.465-.769-2.465-2.241Z"/>
    <path class="uuid-cb4655d3-dbfe-47f9-93f6-c80ca8867345" d="M257.97,361.368c0-2.353,1.697-4.146,3.905-4.146,2.193,0,3.794,1.745,3.794,4.146v.432h-5.923c.176,1.296,1.153,2.241,2.401,2.241.752,0,1.457-.288,1.905-.752l1.184,1.073c-.976.816-1.953,1.168-3.169,1.168-2.305,0-4.098-1.809-4.098-4.162ZM263.956,360.679c-.192-1.168-1.024-1.985-2.097-1.985-1.089,0-1.889.784-2.097,1.985h4.194Z"/>
  </g>
  <g>
    <path class="uuid-cb4655d3-dbfe-47f9-93f6-c80ca8867345" d="M256.828,408.708h4.384c1.989,0,3.278,1.247,3.278,3.054,0,1.765-1.289,3.011-3.278,3.011h-2.704v3.74h-1.681v-9.805ZM260.946,413.4c1.19,0,1.849-.658,1.849-1.653,0-.967-.659-1.625-1.835-1.625h-2.452v3.278h2.438Z"/>
    <path class="uuid-cb4655d3-dbfe-47f9-93f6-c80ca8867345" d="M265.185,415.011c0-2.073,1.513-3.628,3.53-3.628,2.003,0,3.516,1.555,3.516,3.628s-1.513,3.628-3.516,3.628c-2.017,0-3.53-1.555-3.53-3.628ZM270.676,415.011c0-1.303-.827-2.283-1.961-2.283-1.149,0-1.975.98-1.975,2.283,0,1.317.826,2.283,1.975,2.283,1.134,0,1.961-.966,1.961-2.283Z"/>
    <path class="uuid-cb4655d3-dbfe-47f9-93f6-c80ca8867345" d="M273.865,411.495h1.583v1.513c.392-1.064,1.064-1.639,1.933-1.639.266.014.448.042.686.14v1.387c-.252-.098-.574-.168-.868-.168-.771,0-1.401.434-1.751,1.163v4.623h-1.583v-7.018Z"/>
    <path class="uuid-cb4655d3-dbfe-47f9-93f6-c80ca8867345" d="M280.235,416.692v-3.937h-1.401v-1.26h1.401v-1.933l1.583-.336v2.27h1.947v1.26h-1.947v3.586c0,.687.266.953.981.953.308,0,.532-.042.952-.168v1.331c-.406.126-.938.196-1.358.196-1.415,0-2.157-.672-2.157-1.961Z"/>
    <path class="uuid-cb4655d3-dbfe-47f9-93f6-c80ca8867345" d="M293.201,416.089h-5.393v-1.261l5.169-6.121h1.793v6.051h1.289v1.331h-1.289v2.423h-1.569v-2.423ZM293.201,414.759v-4.258l-3.572,4.258h3.572Z"/>
    <path class="uuid-cb4655d3-dbfe-47f9-93f6-c80ca8867345" d="M302.329,416.089h-5.393v-1.261l5.169-6.121h1.793v6.051h1.289v1.331h-1.289v2.423h-1.569v-2.423ZM302.329,414.759v-4.258l-3.572,4.258h3.572Z"/>
    <path class="uuid-cb4655d3-dbfe-47f9-93f6-c80ca8867345" d="M305.896,417.196l1.022-.98c.785.812,1.485,1.107,2.578,1.107,1.274,0,2.143-.659,2.143-1.625,0-.883-.714-1.485-1.751-1.485h-1.205v-1.289h1.079c.953,0,1.569-.574,1.569-1.457s-.812-1.555-1.863-1.555c-.98,0-1.639.308-2.437,1.163l-1.037-.966c.896-.995,2.171-1.555,3.516-1.555,1.947,0,3.348,1.149,3.348,2.76,0,1.037-.743,1.905-1.849,2.227,1.303.28,2.171,1.148,2.171,2.255,0,1.667-1.541,2.872-3.656,2.872-1.443,0-2.746-.533-3.628-1.471Z"/>
  </g>
  <g>
    <path class="uuid-cb4655d3-dbfe-47f9-93f6-c80ca8867345" d="M377.075,270.588h1.681v4.118h4.875v-4.118h1.681v9.805h-1.681v-4.188h-4.875v4.188h-1.681v-9.805Z"/>
    <path class="uuid-cb4655d3-dbfe-47f9-93f6-c80ca8867345" d="M390.041,272.044h-3.278v-1.457h8.236v1.457h-3.277v8.349h-1.681v-8.349Z"/>
    <path class="uuid-cb4655d3-dbfe-47f9-93f6-c80ca8867345" d="M399.112,272.044h-3.278v-1.457h8.236v1.457h-3.277v8.349h-1.681v-8.349Z"/>
    <path class="uuid-cb4655d3-dbfe-47f9-93f6-c80ca8867345" d="M405.593,270.588h4.384c1.989,0,3.278,1.247,3.278,3.054,0,1.765-1.289,3.011-3.278,3.011h-2.704v3.74h-1.681v-9.805ZM409.711,275.28c1.19,0,1.849-.658,1.849-1.653,0-.967-.659-1.625-1.835-1.625h-2.452v3.278h2.438Z"/>
  </g>
  <g>
    <path class="uuid-cb4655d3-dbfe-47f9-93f6-c80ca8867345" d="M821.375,68.185h1.682v9.805h-1.682v-9.805Z"/>
    <path class="uuid-cb4655d3-dbfe-47f9-93f6-c80ca8867345" d="M825.142,70.973h1.583v1.148c.532-.827,1.303-1.261,2.213-1.261,1.442,0,2.451,1.022,2.451,2.507v4.623h-1.597v-4.174c0-1.022-.603-1.681-1.541-1.681-.645,0-1.162.294-1.526.854v5h-1.583v-7.018Z"/>
    <path class="uuid-cb4655d3-dbfe-47f9-93f6-c80ca8867345" d="M831.944,80.946v-1.261c.183.042.337.056.561.056.546,0,.784-.238.784-.771v-7.998h1.583v8.068c0,1.274-.742,2.017-2.073,2.017-.308,0-.658-.042-.854-.112ZM833.093,68.577c0-.532.448-.98.981-.98.546,0,.994.448.994.98s-.448.966-.994.966c-.533,0-.981-.434-.981-.966Z"/>
    <path class="uuid-cb4655d3-dbfe-47f9-93f6-c80ca8867345" d="M836.495,74.488c0-2.059,1.484-3.628,3.418-3.628,1.919,0,3.319,1.527,3.319,3.628v.378h-5.183c.154,1.134,1.009,1.961,2.102,1.961.658,0,1.274-.252,1.667-.658l1.036.938c-.854.714-1.709,1.022-2.773,1.022-2.018,0-3.586-1.583-3.586-3.642ZM841.733,73.886c-.168-1.023-.896-1.737-1.835-1.737-.952,0-1.652.687-1.835,1.737h3.67Z"/>
    <path class="uuid-cb4655d3-dbfe-47f9-93f6-c80ca8867345" d="M844.545,74.488c0-2.031,1.541-3.628,3.544-3.628,1.093,0,2.101.434,2.802,1.19l-.98,1.023c-.49-.546-1.093-.827-1.766-.827-1.135,0-2.017.98-2.017,2.241,0,1.275.882,2.241,2.017,2.241.673,0,1.275-.28,1.766-.812l.98,1.009c-.701.756-1.709,1.19-2.802,1.19-2.003,0-3.544-1.583-3.544-3.628Z"/>
    <path class="uuid-cb4655d3-dbfe-47f9-93f6-c80ca8867345" d="M853.197,76.169v-3.937h-1.4v-1.26h1.4v-1.933l1.583-.336v2.27h1.947v1.26h-1.947v3.586c0,.687.266.953.98.953.309,0,.532-.042.952-.168v1.331c-.406.126-.938.196-1.358.196-1.415,0-2.157-.672-2.157-1.961Z"/>
    <path class="uuid-cb4655d3-dbfe-47f9-93f6-c80ca8867345" d="M857.69,74.488c0-2.059,1.485-3.628,3.418-3.628,1.919,0,3.32,1.527,3.32,3.628v.378h-5.183c.153,1.134,1.008,1.961,2.101,1.961.658,0,1.274-.252,1.667-.658l1.036.938c-.854.714-1.708,1.022-2.773,1.022-2.017,0-3.586-1.583-3.586-3.642ZM862.93,73.886c-.168-1.023-.896-1.737-1.835-1.737-.952,0-1.653.687-1.835,1.737h3.67Z"/>
    <path class="uuid-cb4655d3-dbfe-47f9-93f6-c80ca8867345" d="M865.74,74.488c0-2.003,1.443-3.572,3.278-3.572.798,0,1.526.322,2.045.911v-3.88l1.583-.28v10.324h-1.569v-.924c-.504.63-1.288.994-2.171.994-1.779,0-3.166-1.583-3.166-3.572ZM871.063,75.959v-2.956c-.406-.476-1.009-.756-1.667-.756-1.204,0-2.101.953-2.101,2.241,0,1.275.896,2.241,2.101,2.241.687,0,1.261-.266,1.667-.771Z"/>
  </g>
  <g>
    <path class="uuid-cb4655d3-dbfe-47f9-93f6-c80ca8867345" d="M634.122,537.185h4.385c1.989,0,3.277,1.247,3.277,3.054,0,1.765-1.288,3.011-3.277,3.011h-2.704v3.74h-1.681v-9.805ZM638.24,541.877c1.19,0,1.85-.658,1.85-1.653,0-.967-.659-1.625-1.835-1.625h-2.452v3.278h2.438Z"/>
    <path class="uuid-cb4655d3-dbfe-47f9-93f6-c80ca8867345" d="M643.39,539.973h1.583v1.513c.393-1.064,1.064-1.639,1.934-1.639.266.014.448.042.686.14v1.387c-.252-.098-.574-.168-.868-.168-.771,0-1.4.434-1.751,1.163v4.623h-1.583v-7.018Z"/>
    <path class="uuid-cb4655d3-dbfe-47f9-93f6-c80ca8867345" d="M648.248,543.488c0-2.073,1.513-3.628,3.53-3.628,2.003,0,3.516,1.555,3.516,3.628s-1.513,3.628-3.516,3.628c-2.018,0-3.53-1.555-3.53-3.628ZM653.739,543.488c0-1.303-.827-2.283-1.961-2.283-1.149,0-1.976.98-1.976,2.283,0,1.317.826,2.283,1.976,2.283,1.134,0,1.961-.966,1.961-2.283Z"/>
    <path class="uuid-cb4655d3-dbfe-47f9-93f6-c80ca8867345" d="M655.892,539.973h1.723l1.961,5.099,1.947-5.099h1.652l-2.886,7.018h-1.54l-2.857-7.018Z"/>
    <path class="uuid-cb4655d3-dbfe-47f9-93f6-c80ca8867345" d="M664.109,537.577c0-.532.435-.98.98-.98.532,0,.98.448.98.98s-.448.966-.98.966c-.546,0-.98-.434-.98-.966ZM664.291,539.973h1.583v7.018h-1.583v-7.018Z"/>
    <path class="uuid-cb4655d3-dbfe-47f9-93f6-c80ca8867345" d="M667.512,543.488c0-2.003,1.442-3.572,3.277-3.572.799,0,1.527.322,2.046.911v-3.88l1.582-.28v10.324h-1.568v-.924c-.505.63-1.289.994-2.171.994-1.779,0-3.166-1.583-3.166-3.572ZM672.835,544.959v-2.956c-.406-.476-1.009-.756-1.667-.756-1.205,0-2.102.953-2.102,2.241,0,1.275.896,2.241,2.102,2.241.686,0,1.261-.266,1.667-.771Z"/>
    <path class="uuid-cb4655d3-dbfe-47f9-93f6-c80ca8867345" d="M676.051,543.488c0-2.059,1.485-3.628,3.418-3.628,1.919,0,3.32,1.527,3.32,3.628v.378h-5.183c.153,1.134,1.008,1.961,2.101,1.961.658,0,1.274-.252,1.667-.658l1.036.938c-.854.714-1.708,1.022-2.773,1.022-2.017,0-3.586-1.583-3.586-3.642ZM681.29,542.886c-.168-1.023-.896-1.737-1.835-1.737-.952,0-1.653.687-1.835,1.737h3.67Z"/>
    <path class="uuid-cb4655d3-dbfe-47f9-93f6-c80ca8867345" d="M683.835,546.178l.742-1.05c.925.574,1.541.798,2.255.798.841,0,1.415-.393,1.415-.953,0-.434-.294-.658-.98-.798l-1.232-.21c-1.373-.252-2.031-.883-2.031-1.933,0-1.317,1.078-2.171,2.718-2.171.98,0,1.862.28,2.759.84l-.742,1.051c-.714-.462-1.4-.672-2.115-.672-.729,0-1.204.308-1.204.812,0,.448.252.644.98.771l1.246.238c1.401.252,2.073.896,2.073,1.947,0,1.289-1.232,2.283-2.871,2.283-1.205,0-2.27-.336-3.012-.953Z"/>
    <path class="uuid-cb4655d3-dbfe-47f9-93f6-c80ca8867345" d="M694.321,539.973h1.555v.994c.504-.658,1.289-1.05,2.186-1.05,1.778,0,3.165,1.583,3.165,3.572,0,2.003-1.429,3.572-3.264,3.572-.826,0-1.555-.308-2.059-.896v3.754h-1.583v-9.945ZM699.672,543.488c0-1.274-.896-2.241-2.087-2.241-.7,0-1.274.28-1.681.785v2.927c.406.49,1.008.785,1.681.785,1.204,0,2.087-.967,2.087-2.255Z"/>
    <path class="uuid-cb4655d3-dbfe-47f9-93f6-c80ca8867345" d="M702.553,543.488c0-2.059,1.484-3.628,3.418-3.628,1.919,0,3.319,1.527,3.319,3.628v.378h-5.183c.154,1.134,1.009,1.961,2.102,1.961.658,0,1.274-.252,1.667-.658l1.036.938c-.854.714-1.709,1.022-2.773,1.022-2.018,0-3.586-1.583-3.586-3.642ZM707.791,542.886c-.168-1.023-.896-1.737-1.835-1.737-.952,0-1.652.687-1.835,1.737h3.67Z"/>
    <path class="uuid-cb4655d3-dbfe-47f9-93f6-c80ca8867345" d="M710.896,539.973h1.583v1.513c.393-1.064,1.064-1.639,1.934-1.639.266.014.448.042.686.14v1.387c-.252-.098-.574-.168-.868-.168-.771,0-1.4.434-1.751,1.163v4.623h-1.583v-7.018Z"/>
    <path class="uuid-cb4655d3-dbfe-47f9-93f6-c80ca8867345" d="M715.796,546.178l.743-1.05c.924.574,1.54.798,2.255.798.841,0,1.415-.393,1.415-.953,0-.434-.295-.658-.98-.798l-1.233-.21c-1.372-.252-2.031-.883-2.031-1.933,0-1.317,1.079-2.171,2.718-2.171.98,0,1.863.28,2.76.84l-.742,1.051c-.715-.462-1.401-.672-2.115-.672-.729,0-1.205.308-1.205.812,0,.448.252.644.98.771l1.247.238c1.4.252,2.073.896,2.073,1.947,0,1.289-1.233,2.283-2.872,2.283-1.204,0-2.269-.336-3.012-.953Z"/>
    <path class="uuid-cb4655d3-dbfe-47f9-93f6-c80ca8867345" d="M722.937,537.577c0-.532.435-.98.98-.98.532,0,.98.448.98.98s-.448.966-.98.966c-.546,0-.98-.434-.98-.966ZM723.118,539.973h1.583v7.018h-1.583v-7.018Z"/>
    <path class="uuid-cb4655d3-dbfe-47f9-93f6-c80ca8867345" d="M726.03,546.178l.742-1.05c.925.574,1.541.798,2.255.798.841,0,1.415-.393,1.415-.953,0-.434-.294-.658-.98-.798l-1.232-.21c-1.373-.252-2.031-.883-2.031-1.933,0-1.317,1.078-2.171,2.718-2.171.98,0,1.862.28,2.759.84l-.742,1.051c-.714-.462-1.4-.672-2.115-.672-.729,0-1.204.308-1.204.812,0,.448.252.644.98.771l1.246.238c1.401.252,2.073.896,2.073,1.947,0,1.289-1.232,2.283-2.871,2.283-1.205,0-2.27-.336-3.012-.953Z"/>
    <path class="uuid-cb4655d3-dbfe-47f9-93f6-c80ca8867345" d="M734.095,545.169v-3.937h-1.4v-1.26h1.4v-1.933l1.583-.336v2.27h1.947v1.26h-1.947v3.586c0,.687.266.953.98.953.309,0,.532-.042.952-.168v1.331c-.406.126-.938.196-1.358.196-1.415,0-2.157-.672-2.157-1.961Z"/>
    <path class="uuid-cb4655d3-dbfe-47f9-93f6-c80ca8867345" d="M738.588,543.488c0-2.059,1.485-3.628,3.418-3.628,1.919,0,3.32,1.527,3.32,3.628v.378h-5.183c.153,1.134,1.008,1.961,2.101,1.961.658,0,1.274-.252,1.667-.658l1.036.938c-.854.714-1.708,1.022-2.773,1.022-2.017,0-3.586-1.583-3.586-3.642ZM743.827,542.886c-.168-1.023-.896-1.737-1.835-1.737-.952,0-1.653.687-1.835,1.737h3.67Z"/>
    <path class="uuid-cb4655d3-dbfe-47f9-93f6-c80ca8867345" d="M746.933,539.973h1.583v1.148c.532-.827,1.303-1.261,2.213-1.261,1.442,0,2.451,1.022,2.451,2.507v4.623h-1.597v-4.174c0-1.022-.603-1.681-1.541-1.681-.645,0-1.162.294-1.526.854v5h-1.583v-7.018Z"/>
    <path class="uuid-cb4655d3-dbfe-47f9-93f6-c80ca8867345" d="M755.738,545.169v-3.937h-1.4v-1.26h1.4v-1.933l1.583-.336v2.27h1.947v1.26h-1.947v3.586c0,.687.266.953.98.953.309,0,.532-.042.952-.168v1.331c-.406.126-.938.196-1.358.196-1.415,0-2.157-.672-2.157-1.961Z"/>
    <path class="uuid-cb4655d3-dbfe-47f9-93f6-c80ca8867345" d="M763.186,546.178l.742-1.05c.925.574,1.541.798,2.255.798.841,0,1.415-.393,1.415-.953,0-.434-.294-.658-.98-.798l-1.232-.21c-1.373-.252-2.031-.883-2.031-1.933,0-1.317,1.078-2.171,2.718-2.171.98,0,1.862.28,2.759.84l-.742,1.051c-.714-.462-1.4-.672-2.115-.672-.729,0-1.204.308-1.204.812,0,.448.252.644.98.771l1.246.238c1.401.252,2.073.896,2.073,1.947,0,1.289-1.232,2.283-2.871,2.283-1.205,0-2.27-.336-3.012-.953Z"/>
    <path class="uuid-cb4655d3-dbfe-47f9-93f6-c80ca8867345" d="M771.25,545.169v-3.937h-1.4v-1.26h1.4v-1.933l1.583-.336v2.27h1.947v1.26h-1.947v3.586c0,.687.266.953.98.953.309,0,.532-.042.952-.168v1.331c-.406.126-.938.196-1.358.196-1.415,0-2.157-.672-2.157-1.961Z"/>
    <path class="uuid-cb4655d3-dbfe-47f9-93f6-c80ca8867345" d="M775.743,543.488c0-2.073,1.514-3.628,3.53-3.628,2.003,0,3.516,1.555,3.516,3.628s-1.513,3.628-3.516,3.628c-2.017,0-3.53-1.555-3.53-3.628ZM781.234,543.488c0-1.303-.826-2.283-1.961-2.283-1.148,0-1.975.98-1.975,2.283,0,1.317.826,2.283,1.975,2.283,1.135,0,1.961-.966,1.961-2.283Z"/>
    <path class="uuid-cb4655d3-dbfe-47f9-93f6-c80ca8867345" d="M784.423,539.973h1.583v1.513c.393-1.064,1.064-1.639,1.934-1.639.266.014.448.042.686.14v1.387c-.252-.098-.574-.168-.868-.168-.771,0-1.4.434-1.751,1.163v4.623h-1.583v-7.018Z"/>
    <path class="uuid-cb4655d3-dbfe-47f9-93f6-c80ca8867345" d="M789.351,544.973c0-1.261,1.037-2.059,2.689-2.059.659,0,1.275.14,1.892.448v-.785c0-.924-.532-1.4-1.611-1.4-.588,0-1.232.168-2.045.546l-.561-1.149c1.051-.476,1.976-.714,2.914-.714,1.835,0,2.871.924,2.871,2.549v4.581h-1.568v-.729c-.603.588-1.275.854-2.087.854-1.472,0-2.494-.882-2.494-2.143ZM792.278,545.996c.631,0,1.177-.182,1.653-.588v-1.134c-.505-.238-1.009-.336-1.611-.336-.91,0-1.484.378-1.484,1.009,0,.644.561,1.05,1.442,1.05Z"/>
    <path class="uuid-cb4655d3-dbfe-47f9-93f6-c80ca8867345" d="M797.877,549.372l.547-1.163c.826.406,1.498.588,2.199.588,1.176,0,1.793-.532,1.793-1.555v-1.19c-.505.616-1.275.98-2.157.98-1.779,0-3.166-1.583-3.166-3.572s1.442-3.544,3.277-3.544c.812,0,1.541.322,2.06.938v-.882h1.568v7.27c0,1.807-1.177,2.816-3.306,2.816-1.009,0-1.989-.252-2.815-.687ZM802.416,544.945v-2.942c-.406-.476-1.009-.756-1.667-.756-1.205,0-2.102.938-2.102,2.227,0,1.275.896,2.241,2.102,2.241.686,0,1.261-.28,1.667-.77Z"/>
    <path class="uuid-cb4655d3-dbfe-47f9-93f6-c80ca8867345" d="M805.618,543.488c0-2.059,1.485-3.628,3.418-3.628,1.919,0,3.32,1.527,3.32,3.628v.378h-5.183c.153,1.134,1.008,1.961,2.101,1.961.658,0,1.274-.252,1.667-.658l1.036.938c-.854.714-1.708,1.022-2.773,1.022-2.017,0-3.586-1.583-3.586-3.642ZM810.857,542.886c-.168-1.023-.896-1.737-1.835-1.737-.952,0-1.653.687-1.835,1.737h3.67Z"/>
  </g>
  <g>
    <path class="uuid-cb4655d3-dbfe-47f9-93f6-c80ca8867345" d="M375.378,443.233h1.681v4.118h4.875v-4.118h1.681v9.805h-1.681v-4.188h-4.875v4.188h-1.681v-9.805Z"/>
    <path class="uuid-cb4655d3-dbfe-47f9-93f6-c80ca8867345" d="M388.344,444.689h-3.278v-1.457h8.236v1.457h-3.277v8.349h-1.681v-8.349Z"/>
    <path class="uuid-cb4655d3-dbfe-47f9-93f6-c80ca8867345" d="M397.416,444.689h-3.278v-1.457h8.236v1.457h-3.277v8.349h-1.681v-8.349Z"/>
    <path class="uuid-cb4655d3-dbfe-47f9-93f6-c80ca8867345" d="M403.896,443.233h4.384c1.989,0,3.278,1.247,3.278,3.054,0,1.765-1.289,3.011-3.278,3.011h-2.704v3.74h-1.681v-9.805ZM408.014,447.925c1.19,0,1.849-.658,1.849-1.653,0-.967-.659-1.625-1.835-1.625h-2.452v3.278h2.438Z"/>
    <path class="uuid-cb4655d3-dbfe-47f9-93f6-c80ca8867345" d="M412.701,451.609l.911-1.233c1.261,1.037,2.171,1.429,3.306,1.429,1.289,0,2.186-.659,2.186-1.569,0-.798-.477-1.176-1.779-1.4l-1.807-.308c-1.695-.308-2.521-1.149-2.521-2.494,0-1.779,1.415-2.956,3.614-2.956,1.471,0,2.815.434,3.937,1.261l-.854,1.261c-.981-.743-2.031-1.135-3.138-1.135-1.177,0-1.961.603-1.961,1.401,0,.714.448,1.079,1.513,1.247l1.751.294c1.975.35,2.899,1.218,2.899,2.703,0,1.807-1.597,3.082-3.936,3.082-1.541,0-2.872-.533-4.119-1.583Z"/>
  </g>
  <rect class="uuid-30d49f96-b45e-4605-9b9e-a5ced2a8b27c" x="126.446" y="233.663" width="235" height="58.869"/>
  <g>
    <path class="uuid-cb4655d3-dbfe-47f9-93f6-c80ca8867345" d="M216.306,265.18l1.041-1.408c1.44,1.184,2.481,1.632,3.777,1.632,1.473,0,2.497-.752,2.497-1.792,0-.913-.544-1.345-2.033-1.601l-2.065-.353c-1.937-.352-2.881-1.312-2.881-2.849,0-2.033,1.617-3.377,4.13-3.377,1.681,0,3.217.496,4.498,1.44l-.976,1.44c-1.121-.848-2.321-1.296-3.585-1.296-1.345,0-2.241.688-2.241,1.601,0,.816.512,1.232,1.729,1.425l2,.336c2.257.4,3.313,1.393,3.313,3.089,0,2.065-1.825,3.521-4.498,3.521-1.761,0-3.281-.608-4.706-1.809Z"/>
    <path class="uuid-cb4655d3-dbfe-47f9-93f6-c80ca8867345" d="M227.026,262.811c0-2.353,1.697-4.146,3.905-4.146,2.193,0,3.793,1.745,3.793,4.146v.432h-5.922c.176,1.296,1.153,2.241,2.401,2.241.752,0,1.457-.288,1.905-.752l1.184,1.073c-.976.816-1.953,1.168-3.169,1.168-2.305,0-4.098-1.809-4.098-4.162ZM233.012,262.123c-.192-1.168-1.024-1.985-2.097-1.985-1.089,0-1.889.784-2.097,1.985h4.194Z"/>
    <path class="uuid-cb4655d3-dbfe-47f9-93f6-c80ca8867345" d="M236.562,258.793h1.809v1.729c.448-1.216,1.216-1.873,2.209-1.873.304.016.512.048.784.16v1.585c-.288-.112-.656-.192-.992-.192-.88,0-1.601.497-2.001,1.329v5.282h-1.809v-8.019Z"/>
    <path class="uuid-cb4655d3-dbfe-47f9-93f6-c80ca8867345" d="M242.146,258.793h1.969l2.241,5.826,2.225-5.826h1.889l-3.297,8.019h-1.761l-3.265-8.019Z"/>
    <path class="uuid-cb4655d3-dbfe-47f9-93f6-c80ca8867345" d="M251.538,256.056c0-.608.496-1.121,1.12-1.121.608,0,1.121.512,1.121,1.121s-.512,1.104-1.121,1.104c-.624,0-1.12-.496-1.12-1.104ZM251.746,258.793h1.809v8.019h-1.809v-8.019Z"/>
    <path class="uuid-cb4655d3-dbfe-47f9-93f6-c80ca8867345" d="M255.426,262.811c0-2.321,1.761-4.146,4.049-4.146,1.249,0,2.401.497,3.202,1.361l-1.121,1.168c-.56-.625-1.249-.944-2.017-.944-1.296,0-2.305,1.12-2.305,2.561,0,1.457,1.008,2.561,2.305,2.561.769,0,1.457-.32,2.017-.929l1.121,1.153c-.8.864-1.953,1.36-3.202,1.36-2.289,0-4.049-1.809-4.049-4.146Z"/>
    <path class="uuid-cb4655d3-dbfe-47f9-93f6-c80ca8867345" d="M263.554,262.811c0-2.353,1.697-4.146,3.905-4.146,2.193,0,3.794,1.745,3.794,4.146v.432h-5.923c.176,1.296,1.153,2.241,2.401,2.241.752,0,1.457-.288,1.905-.752l1.184,1.073c-.976.816-1.953,1.168-3.169,1.168-2.305,0-4.098-1.809-4.098-4.162ZM269.54,262.123c-.192-1.168-1.024-1.985-2.097-1.985-1.089,0-1.889.784-2.097,1.985h4.194Z"/>
  </g>
  <rect class="uuid-30d49f96-b45e-4605-9b9e-a5ced2a8b27c" x="126.446" y="431.775" width="235" height="58.869"/>
  <g>
    <path class="uuid-cb4655d3-dbfe-47f9-93f6-c80ca8867345" d="M203.06,455.386h-3.745v-1.665h9.412v1.665h-3.746v9.54h-1.921v-9.54Z"/>
    <path class="uuid-cb4655d3-dbfe-47f9-93f6-c80ca8867345" d="M210.467,453.721h1.92v9.54h5.971v1.665h-7.891v-11.205Z"/>
    <path class="uuid-cb4655d3-dbfe-47f9-93f6-c80ca8867345" d="M219.522,463.293l1.041-1.408c1.44,1.184,2.481,1.632,3.777,1.632,1.473,0,2.497-.752,2.497-1.792,0-.913-.544-1.345-2.033-1.601l-2.065-.353c-1.937-.352-2.881-1.312-2.881-2.849,0-2.033,1.617-3.377,4.13-3.377,1.681,0,3.217.496,4.498,1.44l-.976,1.44c-1.121-.848-2.321-1.296-3.585-1.296-1.345,0-2.241.688-2.241,1.601,0,.816.512,1.232,1.729,1.425l2,.336c2.257.4,3.313,1.393,3.313,3.089,0,2.065-1.825,3.521-4.498,3.521-1.76,0-3.281-.608-4.706-1.809Z"/>
    <path class="uuid-cb4655d3-dbfe-47f9-93f6-c80ca8867345" d="M233.314,463.293l1.041-1.408c1.44,1.184,2.481,1.632,3.777,1.632,1.473,0,2.497-.752,2.497-1.792,0-.913-.544-1.345-2.033-1.601l-2.065-.353c-1.937-.352-2.881-1.312-2.881-2.849,0-2.033,1.617-3.377,4.13-3.377,1.681,0,3.217.496,4.498,1.44l-.976,1.44c-1.121-.848-2.321-1.296-3.585-1.296-1.345,0-2.241.688-2.241,1.601,0,.816.512,1.232,1.729,1.425l2,.336c2.257.4,3.313,1.393,3.313,3.089,0,2.065-1.825,3.521-4.498,3.521-1.761,0-3.281-.608-4.706-1.809Z"/>
    <path class="uuid-cb4655d3-dbfe-47f9-93f6-c80ca8867345" d="M244.034,460.924c0-2.353,1.697-4.146,3.905-4.146,2.193,0,3.794,1.745,3.794,4.146v.432h-5.923c.176,1.296,1.153,2.241,2.401,2.241.752,0,1.457-.288,1.905-.752l1.184,1.073c-.976.816-1.953,1.168-3.169,1.168-2.305,0-4.098-1.809-4.098-4.162ZM250.021,460.236c-.192-1.168-1.024-1.985-2.097-1.985-1.089,0-1.889.784-2.097,1.985h4.194Z"/>
    <path class="uuid-cb4655d3-dbfe-47f9-93f6-c80ca8867345" d="M253.57,456.907h1.809v1.729c.448-1.216,1.216-1.873,2.209-1.873.304.016.512.048.784.16v1.585c-.288-.112-.656-.192-.992-.192-.88,0-1.601.497-2.001,1.329v5.282h-1.809v-8.019Z"/>
    <path class="uuid-cb4655d3-dbfe-47f9-93f6-c80ca8867345" d="M259.154,456.907h1.969l2.241,5.826,2.225-5.826h1.889l-3.297,8.019h-1.761l-3.265-8.019Z"/>
    <path class="uuid-cb4655d3-dbfe-47f9-93f6-c80ca8867345" d="M268.546,454.169c0-.608.496-1.121,1.12-1.121.608,0,1.121.512,1.121,1.121s-.512,1.104-1.121,1.104c-.624,0-1.12-.496-1.12-1.104ZM268.754,456.907h1.809v8.019h-1.809v-8.019Z"/>
    <path class="uuid-cb4655d3-dbfe-47f9-93f6-c80ca8867345" d="M272.434,460.924c0-2.321,1.761-4.146,4.049-4.146,1.249,0,2.401.497,3.202,1.361l-1.121,1.168c-.56-.625-1.249-.944-2.017-.944-1.297,0-2.305,1.12-2.305,2.561,0,1.457,1.008,2.561,2.305,2.561.768,0,1.457-.32,2.017-.929l1.121,1.153c-.8.864-1.953,1.36-3.202,1.36-2.289,0-4.049-1.809-4.049-4.146Z"/>
    <path class="uuid-cb4655d3-dbfe-47f9-93f6-c80ca8867345" d="M280.562,460.924c0-2.353,1.697-4.146,3.905-4.146,2.193,0,3.793,1.745,3.793,4.146v.432h-5.922c.176,1.296,1.153,2.241,2.401,2.241.752,0,1.457-.288,1.905-.752l1.184,1.073c-.976.816-1.953,1.168-3.169,1.168-2.305,0-4.098-1.809-4.098-4.162ZM286.548,460.236c-.192-1.168-1.024-1.985-2.097-1.985-1.089,0-1.889.784-2.097,1.985h4.194Z"/>
  </g>
  <rect class="uuid-525cb416-fb9b-4b52-9f9d-66bab5a1c895" x="482.696" y="312.81" width="286.059" height="58.869"/>
  <g>
    <path class="uuid-cb4655d3-dbfe-47f9-93f6-c80ca8867345" d="M549.948,341.958c0-2.369,1.729-4.146,4.034-4.146,2.288,0,4.018,1.777,4.018,4.146s-1.729,4.146-4.018,4.146c-2.306,0-4.034-1.777-4.034-4.146ZM556.223,341.958c0-1.489-.944-2.609-2.24-2.609-1.312,0-2.258,1.121-2.258,2.609,0,1.504.945,2.609,2.258,2.609,1.296,0,2.24-1.104,2.24-2.609Z"/>
    <path class="uuid-cb4655d3-dbfe-47f9-93f6-c80ca8867345" d="M559.531,343.655c0-1.441,1.185-2.353,3.073-2.353.753,0,1.457.16,2.161.512v-.896c0-1.057-.608-1.601-1.841-1.601-.672,0-1.408.192-2.337.624l-.64-1.312c1.2-.544,2.257-.816,3.329-.816,2.097,0,3.281,1.057,3.281,2.914v5.234h-1.793v-.833c-.688.672-1.456.977-2.385.977-1.681,0-2.85-1.008-2.85-2.449ZM562.877,344.824c.721,0,1.345-.208,1.889-.672v-1.297c-.576-.272-1.152-.384-1.841-.384-1.04,0-1.696.432-1.696,1.152,0,.736.64,1.201,1.648,1.201Z"/>
    <path class="uuid-cb4655d3-dbfe-47f9-93f6-c80ca8867345" d="M568.604,343.223v-5.282h1.824v4.754c0,1.184.688,1.937,1.761,1.937.721,0,1.328-.32,1.745-.96v-5.73h1.809v8.019h-1.809v-1.296c-.608.944-1.473,1.424-2.546,1.424-1.632,0-2.784-1.185-2.784-2.865Z"/>
    <path class="uuid-cb4655d3-dbfe-47f9-93f6-c80ca8867345" d="M578.973,343.879v-4.498h-1.601v-1.44h1.601v-2.209l1.809-.384v2.593h2.225v1.44h-2.225v4.098c0,.784.304,1.088,1.12,1.088.353,0,.608-.048,1.089-.192v1.521c-.464.144-1.072.224-1.553.224-1.616,0-2.465-.769-2.465-2.241Z"/>
    <path class="uuid-cb4655d3-dbfe-47f9-93f6-c80ca8867345" d="M584.604,334.483l1.809-.32v5.09c.608-.944,1.489-1.441,2.529-1.441,1.648,0,2.801,1.168,2.801,2.865v5.282h-1.824v-4.77c0-1.168-.688-1.921-1.761-1.921-.736,0-1.329.336-1.745.977v5.714h-1.809v-11.477Z"/>
    <path class="uuid-cb4655d3-dbfe-47f9-93f6-c80ca8867345" d="M593.691,340.646h5.586v1.537h-5.586v-1.537Z"/>
    <path class="uuid-cb4655d3-dbfe-47f9-93f6-c80ca8867345" d="M601.308,337.941h1.776v1.136c.576-.752,1.473-1.201,2.497-1.201,2.032,0,3.617,1.809,3.617,4.082,0,2.289-1.633,4.082-3.729,4.082-.944,0-1.776-.352-2.353-1.024v4.29h-1.809v-11.364ZM607.422,341.958c0-1.457-1.024-2.561-2.385-2.561-.801,0-1.457.32-1.921.896v3.346c.464.56,1.152.896,1.921.896,1.376,0,2.385-1.104,2.385-2.577Z"/>
    <path class="uuid-cb4655d3-dbfe-47f9-93f6-c80ca8867345" d="M611.083,337.941h1.809v1.729c.448-1.216,1.217-1.873,2.209-1.873.305.016.513.048.784.16v1.585c-.288-.112-.656-.192-.992-.192-.88,0-1.601.497-2.001,1.329v5.282h-1.809v-8.019Z"/>
    <path class="uuid-cb4655d3-dbfe-47f9-93f6-c80ca8867345" d="M616.635,341.958c0-2.369,1.729-4.146,4.034-4.146,2.288,0,4.018,1.777,4.018,4.146s-1.729,4.146-4.018,4.146c-2.306,0-4.034-1.777-4.034-4.146ZM622.909,341.958c0-1.489-.944-2.609-2.24-2.609-1.312,0-2.258,1.121-2.258,2.609,0,1.504.945,2.609,2.258,2.609,1.296,0,2.24-1.104,2.24-2.609Z"/>
    <path class="uuid-cb4655d3-dbfe-47f9-93f6-c80ca8867345" d="M628.012,341.83l-2.897-3.889h2.129l1.873,2.641,1.872-2.641h2.033l-2.929,3.938,3.057,4.082h-2.112l-2.018-2.801-2.017,2.801h-2.017l3.025-4.13Z"/>
    <path class="uuid-cb4655d3-dbfe-47f9-93f6-c80ca8867345" d="M634.219,349.354v-1.569c.208.048.464.064.704.064.641,0,1.024-.288,1.297-.912l.368-.896-3.025-8.099h2.001l2.049,5.938,2.225-5.938h1.984l-3.841,9.412c-.625,1.553-1.361,2.113-2.865,2.113-.257,0-.576-.032-.896-.112Z"/>
    <path class="uuid-cb4655d3-dbfe-47f9-93f6-c80ca8867345" d="M646.362,341.958c0-2.321,1.761-4.146,4.049-4.146,1.249,0,2.401.497,3.202,1.361l-1.121,1.168c-.56-.625-1.248-.944-2.017-.944-1.297,0-2.305,1.12-2.305,2.561,0,1.457,1.008,2.561,2.305,2.561.769,0,1.457-.32,2.017-.929l1.121,1.153c-.801.864-1.953,1.36-3.202,1.36-2.288,0-4.049-1.809-4.049-4.146Z"/>
    <path class="uuid-cb4655d3-dbfe-47f9-93f6-c80ca8867345" d="M654.49,341.958c0-2.369,1.729-4.146,4.033-4.146,2.289,0,4.018,1.777,4.018,4.146s-1.729,4.146-4.018,4.146c-2.305,0-4.033-1.777-4.033-4.146ZM660.765,341.958c0-1.489-.944-2.609-2.241-2.609-1.312,0-2.257,1.121-2.257,2.609,0,1.504.944,2.609,2.257,2.609,1.297,0,2.241-1.104,2.241-2.609Z"/>
    <path class="uuid-cb4655d3-dbfe-47f9-93f6-c80ca8867345" d="M664.41,337.941h1.809v1.312c.608-.944,1.488-1.441,2.528-1.441,1.649,0,2.802,1.168,2.802,2.865v5.282h-1.825v-4.77c0-1.168-.688-1.921-1.761-1.921-.736,0-1.328.336-1.744.977v5.714h-1.809v-8.019Z"/>
    <path class="uuid-cb4655d3-dbfe-47f9-93f6-c80ca8867345" d="M674.475,343.879v-4.498h-1.601v-1.44h1.601v-2.209l1.809-.384v2.593h2.225v1.44h-2.225v4.098c0,.784.304,1.088,1.12,1.088.353,0,.608-.048,1.089-.192v1.521c-.464.144-1.072.224-1.553.224-1.616,0-2.465-.769-2.465-2.241Z"/>
    <path class="uuid-cb4655d3-dbfe-47f9-93f6-c80ca8867345" d="M679.689,343.655c0-1.441,1.185-2.353,3.073-2.353.752,0,1.456.16,2.161.512v-.896c0-1.057-.608-1.601-1.841-1.601-.673,0-1.409.192-2.337.624l-.641-1.312c1.2-.544,2.257-.816,3.329-.816,2.098,0,3.281,1.057,3.281,2.914v5.234h-1.792v-.833c-.688.672-1.457.977-2.386.977-1.681,0-2.849-1.008-2.849-2.449ZM683.035,344.824c.72,0,1.344-.208,1.889-.672v-1.297c-.576-.272-1.152-.384-1.841-.384-1.041,0-1.697.432-1.697,1.152,0,.736.641,1.201,1.649,1.201Z"/>
    <path class="uuid-cb4655d3-dbfe-47f9-93f6-c80ca8867345" d="M688.682,335.204c0-.608.496-1.121,1.12-1.121.608,0,1.12.512,1.12,1.121s-.512,1.104-1.12,1.104c-.624,0-1.12-.496-1.12-1.104ZM688.89,337.941h1.809v8.019h-1.809v-8.019Z"/>
    <path class="uuid-cb4655d3-dbfe-47f9-93f6-c80ca8867345" d="M692.937,337.941h1.809v1.312c.608-.944,1.489-1.441,2.529-1.441,1.648,0,2.802,1.168,2.802,2.865v5.282h-1.825v-4.77c0-1.168-.688-1.921-1.761-1.921-.736,0-1.328.336-1.745.977v5.714h-1.809v-8.019Z"/>
    <path class="uuid-cb4655d3-dbfe-47f9-93f6-c80ca8867345" d="M701.881,341.958c0-2.353,1.697-4.146,3.906-4.146,2.192,0,3.793,1.745,3.793,4.146v.432h-5.922c.176,1.296,1.152,2.241,2.4,2.241.753,0,1.457-.288,1.905-.752l1.185,1.073c-.977.816-1.953,1.168-3.17,1.168-2.305,0-4.098-1.809-4.098-4.162ZM707.867,341.27c-.191-1.168-1.024-1.985-2.097-1.985-1.088,0-1.889.784-2.097,1.985h4.193Z"/>
    <path class="uuid-cb4655d3-dbfe-47f9-93f6-c80ca8867345" d="M711.417,337.941h1.809v1.729c.448-1.216,1.217-1.873,2.209-1.873.305.016.513.048.785.16v1.585c-.288-.112-.656-.192-.993-.192-.88,0-1.601.497-2.001,1.329v5.282h-1.809v-8.019Z"/>
  </g>
  <g>
    <path class="uuid-cb4655d3-dbfe-47f9-93f6-c80ca8867345" d="M501.794,342.689c0-3.061.013-6.122-.011-9.182-.005-.642.188-1.039.769-1.371,5.327-3.048,10.64-6.122,15.949-9.201.512-.297.952-.306,1.466-.008,5.349,3.101,10.704,6.193,16.066,9.272.476.274.662.613.661,1.156-.012,6.236-.012,12.472,0,18.708.001.55-.21.877-.679,1.146-5.361,3.081-10.716,6.173-16.066,9.272-.487.282-.918.291-1.407.008-5.37-3.111-10.743-6.217-16.125-9.308-.489-.281-.634-.643-.631-1.172.014-3.106.007-6.213.007-9.319ZM535.004,342.716c0-2.832-.009-5.664.009-8.496.003-.437-.113-.696-.512-.924-4.889-2.802-9.77-5.617-14.641-8.452-.455-.265-.783-.265-1.239,0-4.851,2.823-9.712,5.628-14.582,8.416-.442.253-.573.538-.572,1.028.016,5.618.015,11.237.001,16.855-.001.461.121.735.541.976,4.849,2.78,9.69,5.573,14.518,8.389.521.304.903.304,1.424,0,4.808-2.804,9.629-5.588,14.461-8.353.469-.268.606-.565.602-1.081-.024-2.786-.012-5.572-.012-8.359Z"/>
    <path class="uuid-30d49f96-b45e-4605-9b9e-a5ced2a8b27c" d="M535.004,342.716c0,2.786-.013,5.573.012,8.359.005.516-.133.813-.602,1.081-4.832,2.764-9.652,5.548-14.461,8.353-.521.304-.903.304-1.424,0-4.828-2.816-9.669-5.61-14.518-8.389-.421-.241-.542-.516-.541-.976.014-5.618.015-11.237-.001-16.855-.001-.49.13-.775.572-1.028,4.87-2.788,9.731-5.594,14.582-8.416.455-.265.783-.265,1.239,0,4.87,2.834,9.752,5.65,14.641,8.452.399.229.515.487.512.924-.018,2.832-.009,5.664-.009,8.496Z"/>
  </g>
  <rect class="uuid-525cb416-fb9b-4b52-9f9d-66bab5a1c895" x="482.637" y="389.81" width="286.059" height="58.869"/>
  <g>
    <path class="uuid-cb4655d3-dbfe-47f9-93f6-c80ca8867345" d="M549.251,414.941h1.729l1.409,5.65,1.664-5.65h1.521l1.649,5.65,1.408-5.65h1.681l-2.161,8.019h-1.729l-1.633-5.65-1.616,5.65h-1.761l-2.161-8.019Z"/>
    <path class="uuid-cb4655d3-dbfe-47f9-93f6-c80ca8867345" d="M561.251,418.958c0-2.369,1.729-4.146,4.034-4.146,2.289,0,4.018,1.777,4.018,4.146s-1.729,4.146-4.018,4.146c-2.305,0-4.034-1.777-4.034-4.146ZM567.525,418.958c0-1.489-.944-2.609-2.24-2.609-1.312,0-2.257,1.121-2.257,2.609,0,1.504.944,2.609,2.257,2.609,1.296,0,2.24-1.104,2.24-2.609Z"/>
    <path class="uuid-cb4655d3-dbfe-47f9-93f6-c80ca8867345" d="M571.171,414.941h1.809v1.729c.448-1.216,1.217-1.873,2.209-1.873.305.016.513.048.785.16v1.585c-.288-.112-.656-.192-.993-.192-.88,0-1.601.497-2.001,1.329v5.282h-1.809v-8.019Z"/>
    <path class="uuid-cb4655d3-dbfe-47f9-93f6-c80ca8867345" d="M577.458,411.451l1.809-.304v7.203l3.33-3.409h2.081l-3.698,3.713,3.89,4.306h-2.305l-3.298-3.697v3.697h-1.809v-11.509Z"/>
    <path class="uuid-cb4655d3-dbfe-47f9-93f6-c80ca8867345" d="M586.114,411.531l1.809-.304v4.786c.561-.704,1.457-1.137,2.466-1.137,2.032,0,3.617,1.809,3.617,4.082,0,2.289-1.633,4.082-3.729,4.082-.944,0-1.776-.384-2.385-1.104v1.024h-1.777v-11.429ZM592.229,418.958c0-1.457-1.024-2.561-2.386-2.561-.8,0-1.456.32-1.921.896v3.346c.465.56,1.153.896,1.921.896,1.377,0,2.386-1.104,2.386-2.577Z"/>
    <path class="uuid-cb4655d3-dbfe-47f9-93f6-c80ca8867345" d="M595.521,418.958c0-2.353,1.697-4.146,3.906-4.146,2.192,0,3.793,1.745,3.793,4.146v.432h-5.922c.176,1.296,1.152,2.241,2.4,2.241.753,0,1.457-.288,1.905-.752l1.185,1.073c-.977.816-1.953,1.168-3.17,1.168-2.305,0-4.098-1.809-4.098-4.162ZM601.508,418.27c-.191-1.168-1.024-1.985-2.097-1.985-1.088,0-1.889.784-2.097,1.985h4.193Z"/>
    <path class="uuid-cb4655d3-dbfe-47f9-93f6-c80ca8867345" d="M605.058,414.941h1.809v1.312c.608-.944,1.489-1.441,2.529-1.441,1.648,0,2.802,1.168,2.802,2.865v5.282h-1.825v-4.77c0-1.168-.688-1.921-1.761-1.921-.736,0-1.328.336-1.745.977v5.714h-1.809v-8.019Z"/>
    <path class="uuid-cb4655d3-dbfe-47f9-93f6-c80ca8867345" d="M614.002,418.958c0-2.321,1.761-4.146,4.05-4.146,1.249,0,2.401.497,3.201,1.361l-1.12,1.168c-.561-.625-1.248-.944-2.017-.944-1.297,0-2.306,1.12-2.306,2.561,0,1.457,1.009,2.561,2.306,2.561.769,0,1.456-.32,2.017-.929l1.12,1.153c-.8.864-1.952,1.36-3.201,1.36-2.289,0-4.05-1.809-4.05-4.146Z"/>
    <path class="uuid-cb4655d3-dbfe-47f9-93f6-c80ca8867345" d="M622.737,411.483l1.809-.32v5.09c.608-.944,1.489-1.441,2.529-1.441,1.648,0,2.802,1.168,2.802,2.865v5.282h-1.825v-4.77c0-1.168-.688-1.921-1.761-1.921-.736,0-1.328.336-1.745.977v5.714h-1.809v-11.477Z"/>
    <path class="uuid-cb4655d3-dbfe-47f9-93f6-c80ca8867345" d="M635.281,418.958c0-2.321,1.761-4.146,4.05-4.146,1.249,0,2.401.497,3.201,1.361l-1.12,1.168c-.561-.625-1.248-.944-2.017-.944-1.297,0-2.306,1.12-2.306,2.561,0,1.457,1.009,2.561,2.306,2.561.769,0,1.456-.32,2.017-.929l1.12,1.153c-.8.864-1.952,1.36-3.201,1.36-2.289,0-4.05-1.809-4.05-4.146Z"/>
    <path class="uuid-cb4655d3-dbfe-47f9-93f6-c80ca8867345" d="M643.409,418.958c0-2.369,1.729-4.146,4.034-4.146,2.289,0,4.018,1.777,4.018,4.146s-1.729,4.146-4.018,4.146c-2.305,0-4.034-1.777-4.034-4.146ZM649.684,418.958c0-1.489-.944-2.609-2.24-2.609-1.312,0-2.257,1.121-2.257,2.609,0,1.504.944,2.609,2.257,2.609,1.296,0,2.24-1.104,2.24-2.609Z"/>
    <path class="uuid-cb4655d3-dbfe-47f9-93f6-c80ca8867345" d="M653.329,414.941h1.809v1.312c.608-.944,1.489-1.441,2.529-1.441,1.648,0,2.802,1.168,2.802,2.865v5.282h-1.825v-4.77c0-1.168-.688-1.921-1.761-1.921-.736,0-1.328.336-1.745.977v5.714h-1.809v-8.019Z"/>
    <path class="uuid-cb4655d3-dbfe-47f9-93f6-c80ca8867345" d="M663.395,420.879v-4.498h-1.602v-1.44h1.602v-2.209l1.809-.384v2.593h2.225v1.44h-2.225v4.098c0,.784.304,1.088,1.12,1.088.353,0,.608-.048,1.089-.192v1.521c-.465.144-1.073.224-1.553.224-1.617,0-2.465-.769-2.465-2.241Z"/>
    <path class="uuid-cb4655d3-dbfe-47f9-93f6-c80ca8867345" d="M668.608,420.655c0-1.441,1.185-2.353,3.073-2.353.753,0,1.457.16,2.161.512v-.896c0-1.057-.608-1.601-1.841-1.601-.672,0-1.408.192-2.337.624l-.641-1.312c1.201-.544,2.257-.816,3.33-.816,2.097,0,3.281,1.057,3.281,2.914v5.234h-1.793v-.833c-.688.672-1.457.977-2.385.977-1.681,0-2.85-1.008-2.85-2.449ZM671.954,421.824c.72,0,1.345-.208,1.889-.672v-1.297c-.576-.272-1.152-.384-1.841-.384-1.04,0-1.696.432-1.696,1.152,0,.736.64,1.201,1.648,1.201Z"/>
    <path class="uuid-cb4655d3-dbfe-47f9-93f6-c80ca8867345" d="M677.601,412.204c0-.608.496-1.121,1.12-1.121.608,0,1.121.512,1.121,1.121s-.513,1.104-1.121,1.104c-.624,0-1.12-.496-1.12-1.104ZM677.809,414.941h1.809v8.019h-1.809v-8.019Z"/>
    <path class="uuid-cb4655d3-dbfe-47f9-93f6-c80ca8867345" d="M681.856,414.941h1.809v1.312c.608-.944,1.489-1.441,2.529-1.441,1.648,0,2.802,1.168,2.802,2.865v5.282h-1.825v-4.77c0-1.168-.688-1.921-1.761-1.921-.736,0-1.328.336-1.745.977v5.714h-1.809v-8.019Z"/>
    <path class="uuid-cb4655d3-dbfe-47f9-93f6-c80ca8867345" d="M690.8,418.958c0-2.353,1.697-4.146,3.906-4.146,2.192,0,3.793,1.745,3.793,4.146v.432h-5.922c.176,1.296,1.152,2.241,2.4,2.241.753,0,1.457-.288,1.905-.752l1.185,1.073c-.977.816-1.953,1.168-3.17,1.168-2.305,0-4.098-1.809-4.098-4.162ZM696.786,418.27c-.191-1.168-1.024-1.985-2.097-1.985-1.088,0-1.889.784-2.097,1.985h4.193Z"/>
    <path class="uuid-cb4655d3-dbfe-47f9-93f6-c80ca8867345" d="M700.336,414.941h1.809v1.729c.448-1.216,1.217-1.873,2.209-1.873.305.016.513.048.785.16v1.585c-.289-.112-.656-.192-.993-.192-.88,0-1.601.497-2.001,1.329v5.282h-1.809v-8.019Z"/>
  </g>
  <g>
    <path class="uuid-cb4655d3-dbfe-47f9-93f6-c80ca8867345" d="M501.794,419.689c0-3.061.013-6.122-.011-9.182-.005-.642.188-1.039.769-1.371,5.327-3.048,10.64-6.122,15.949-9.201.512-.297.952-.306,1.466-.008,5.349,3.101,10.704,6.193,16.066,9.272.476.274.662.613.661,1.156-.012,6.236-.012,12.472,0,18.708.001.55-.21.877-.679,1.146-5.361,3.081-10.716,6.173-16.066,9.272-.487.282-.918.291-1.407.008-5.37-3.111-10.743-6.217-16.125-9.308-.489-.281-.634-.643-.631-1.172.014-3.106.007-6.213.007-9.319ZM535.004,419.716c0-2.832-.009-5.664.009-8.496.003-.437-.113-.696-.512-.924-4.889-2.802-9.77-5.617-14.641-8.452-.455-.265-.783-.265-1.239,0-4.851,2.823-9.712,5.628-14.582,8.416-.442.253-.573.538-.572,1.028.016,5.618.015,11.237.001,16.855-.001.461.121.735.541.976,4.849,2.78,9.69,5.573,14.518,8.389.521.304.903.304,1.424,0,4.808-2.804,9.629-5.588,14.461-8.353.469-.268.606-.565.602-1.081-.024-2.786-.012-5.572-.012-8.359Z"/>
    <path class="uuid-30d49f96-b45e-4605-9b9e-a5ced2a8b27c" d="M535.004,419.716c0,2.786-.013,5.573.012,8.359.005.516-.133.813-.602,1.081-4.832,2.764-9.652,5.548-14.461,8.353-.521.304-.903.304-1.424,0-4.828-2.816-9.669-5.61-14.518-8.389-.421-.241-.542-.516-.541-.976.014-5.618.015-11.237-.001-16.855-.001-.49.13-.775.572-1.028,4.87-2.788,9.731-5.594,14.582-8.416.455-.265.783-.265,1.239,0,4.87,2.834,9.752,5.65,14.641,8.452.399.229.515.487.512.924-.018,2.832-.009,5.664-.009,8.496Z"/>
  </g>
  <g>
    <polyline class="uuid-98df29eb-7bbc-428c-98f0-770a6bc159e3" points="437.644 562.055 437.644 560.555 439.144 560.555"/>
    <line class="uuid-adf3af3c-fbab-4965-880d-4e0c462537d9" x1="442.154" y1="560.555" x2="807.94" y2="560.555"/>
    <polyline class="uuid-98df29eb-7bbc-428c-98f0-770a6bc159e3" points="809.446 560.555 810.946 560.555 810.946 562.055"/>
    <line class="uuid-73537859-0127-4ab0-986a-e9718f49f5b7" x1="810.946" y1="565.017" x2="810.946" y2="682.019"/>
    <polyline class="uuid-98df29eb-7bbc-428c-98f0-770a6bc159e3" points="810.946 683.5 810.946 685 809.446 685"/>
    <line class="uuid-adf3af3c-fbab-4965-880d-4e0c462537d9" x1="806.435" y1="685" x2="440.649" y2="685"/>
    <polyline class="uuid-98df29eb-7bbc-428c-98f0-770a6bc159e3" points="439.144 685 437.644 685 437.644 683.5"/>
    <line class="uuid-73537859-0127-4ab0-986a-e9718f49f5b7" x1="437.644" y1="680.538" x2="437.644" y2="563.536"/>
  </g>
  <g>
    <path class="uuid-cb4655d3-dbfe-47f9-93f6-c80ca8867345" d="M455.325,37.503h8.468v2.305h-5.714v2.129h4.033v2.241h-4.033v2.225h5.778v2.305h-8.532v-11.205Z"/>
    <path class="uuid-cb4655d3-dbfe-47f9-93f6-c80ca8867345" d="M465.774,40.449h2.593v1.344c.641-.96,1.536-1.472,2.609-1.472,1.601,0,2.736,1.168,2.736,2.817v5.57h-2.593v-4.818c0-.928-.544-1.537-1.377-1.537-.56,0-1.008.224-1.376.688v5.667h-2.593v-8.259Z"/>
    <path class="uuid-cb4655d3-dbfe-47f9-93f6-c80ca8867345" d="M474.365,40.449h2.816l1.873,5.186,1.889-5.186h2.674l-3.378,8.259h-2.529l-3.345-8.259Z"/>
    <path class="uuid-cb4655d3-dbfe-47f9-93f6-c80ca8867345" d="M484.573,37.728c0-.8.656-1.457,1.456-1.457s1.457.656,1.457,1.457-.656,1.457-1.457,1.457-1.456-.656-1.456-1.457ZM484.733,40.449h2.593v8.259h-2.593v-8.259Z"/>
    <path class="uuid-cb4655d3-dbfe-47f9-93f6-c80ca8867345" d="M489.342,40.449h2.593v1.873c.528-1.376,1.265-2.033,2.241-2.033.368.016.544.048.864.208v2.225c-.32-.16-.769-.256-1.217-.256-.769,0-1.473.4-1.889,1.024v5.218h-2.593v-8.259Z"/>
    <path class="uuid-cb4655d3-dbfe-47f9-93f6-c80ca8867345" d="M495.806,44.594c0-2.433,1.856-4.273,4.306-4.273s4.306,1.84,4.306,4.273-1.857,4.274-4.306,4.274-4.306-1.841-4.306-4.274ZM501.888,44.594c0-1.232-.736-2.113-1.776-2.113s-1.777.88-1.777,2.113.736,2.113,1.777,2.113,1.776-.88,1.776-2.113Z"/>
    <path class="uuid-cb4655d3-dbfe-47f9-93f6-c80ca8867345" d="M506.062,40.449h2.593v1.344c.641-.96,1.536-1.472,2.609-1.472,1.601,0,2.736,1.168,2.736,2.817v5.57h-2.593v-4.818c0-.928-.544-1.537-1.377-1.537-.56,0-1.008.224-1.376.688v5.667h-2.593v-8.259Z"/>
    <path class="uuid-cb4655d3-dbfe-47f9-93f6-c80ca8867345" d="M515.949,40.449h2.593v1.312c.608-.944,1.44-1.44,2.449-1.44,1.072,0,1.921.592,2.32,1.537.641-.993,1.569-1.537,2.705-1.537,1.521,0,2.594,1.2,2.594,2.897v5.49h-2.594v-4.978c0-.833-.496-1.376-1.232-1.376-.479,0-.864.192-1.2.624v5.73h-2.593v-4.978c0-.833-.496-1.376-1.232-1.376-.48,0-.881.208-1.217.64v5.714h-2.593v-8.259Z"/>
    <path class="uuid-cb4655d3-dbfe-47f9-93f6-c80ca8867345" d="M530.189,44.594c0-2.417,1.792-4.273,4.161-4.273,2.385,0,4.065,1.809,4.065,4.37v.56h-5.682c.24.929.992,1.553,1.937,1.553.688,0,1.265-.24,1.633-.688l1.713,1.425c-1.073.944-2.081,1.329-3.474,1.329-2.434,0-4.354-1.873-4.354-4.274ZM536.016,43.778c-.225-.88-.849-1.44-1.681-1.44-.816,0-1.393.528-1.601,1.44h3.281Z"/>
    <path class="uuid-cb4655d3-dbfe-47f9-93f6-c80ca8867345" d="M540.029,40.449h2.593v1.344c.641-.96,1.536-1.472,2.609-1.472,1.601,0,2.736,1.168,2.736,2.817v5.57h-2.593v-4.818c0-.928-.544-1.537-1.377-1.537-.56,0-1.008.224-1.376.688v5.667h-2.593v-8.259Z"/>
    <path class="uuid-cb4655d3-dbfe-47f9-93f6-c80ca8867345" d="M550.765,46.211v-3.761h-1.601v-2.001h1.601v-2.289l2.593-.528v2.817h2.209v2.001h-2.209v3.249c0,.736.288.993,1.089.993.304,0,.544-.032,1.057-.176v2.097c-.48.144-1.249.256-1.777.256-1.952,0-2.961-.896-2.961-2.657Z"/>
    <path class="uuid-cb4655d3-dbfe-47f9-93f6-c80ca8867345" d="M559.549,40.449h2.816l1.873,5.186,1.889-5.186h2.674l-3.378,8.259h-2.529l-3.345-8.259Z"/>
    <path class="uuid-cb4655d3-dbfe-47f9-93f6-c80ca8867345" d="M569.372,46.339c0-1.521,1.185-2.401,3.218-2.401.592,0,1.185.112,1.921.384v-.672c0-.8-.528-1.2-1.633-1.2-.624,0-1.36.176-2.321.576l-.896-1.809c1.36-.608,2.577-.896,3.794-.896,2.289,0,3.617,1.136,3.617,3.105v5.282h-2.561v-.72c-.721.608-1.409.848-2.289.848-1.681,0-2.85-1.024-2.85-2.497ZM573.021,47.124c.545,0,1.041-.144,1.489-.417v-1.056c-.48-.112-.944-.176-1.425-.176-.849,0-1.329.288-1.329.816s.465.833,1.265.833Z"/>
    <path class="uuid-cb4655d3-dbfe-47f9-93f6-c80ca8867345" d="M579.021,40.449h2.593v1.873c.528-1.376,1.265-2.033,2.241-2.033.368.016.544.048.864.208v2.225c-.32-.16-.769-.256-1.217-.256-.769,0-1.473.4-1.889,1.024v5.218h-2.593v-8.259Z"/>
    <path class="uuid-cb4655d3-dbfe-47f9-93f6-c80ca8867345" d="M585.933,37.728c0-.8.656-1.457,1.456-1.457s1.457.656,1.457,1.457-.656,1.457-1.457,1.457-1.456-.656-1.456-1.457ZM586.093,40.449h2.593v8.259h-2.593v-8.259Z"/>
    <path class="uuid-cb4655d3-dbfe-47f9-93f6-c80ca8867345" d="M590.315,46.339c0-1.521,1.185-2.401,3.218-2.401.592,0,1.185.112,1.921.384v-.672c0-.8-.528-1.2-1.633-1.2-.624,0-1.36.176-2.321.576l-.896-1.809c1.36-.608,2.577-.896,3.794-.896,2.289,0,3.617,1.136,3.617,3.105v5.282h-2.561v-.72c-.721.608-1.409.848-2.289.848-1.681,0-2.85-1.024-2.85-2.497ZM593.965,47.124c.545,0,1.041-.144,1.489-.417v-1.056c-.48-.112-.944-.176-1.425-.176-.849,0-1.329.288-1.329.816s.465.833,1.265.833Z"/>
    <path class="uuid-cb4655d3-dbfe-47f9-93f6-c80ca8867345" d="M599.965,37.312l2.593-.4v4.594c.544-.672,1.44-1.104,2.417-1.104,2.032,0,3.649,1.873,3.649,4.193s-1.696,4.162-3.842,4.162c-.896,0-1.696-.384-2.257-1.056v1.008h-2.561v-11.396ZM606.079,44.578c0-1.168-.849-2.033-1.969-2.033-.641,0-1.137.224-1.553.672v2.753c.4.417.944.656,1.553.656,1.137,0,1.969-.864,1.969-2.049Z"/>
    <path class="uuid-cb4655d3-dbfe-47f9-93f6-c80ca8867345" d="M610.269,37.312l2.593-.4v11.797h-2.593v-11.396Z"/>
    <path class="uuid-cb4655d3-dbfe-47f9-93f6-c80ca8867345" d="M614.508,44.594c0-2.417,1.792-4.273,4.161-4.273,2.385,0,4.065,1.809,4.065,4.37v.56h-5.682c.24.929.992,1.553,1.937,1.553.688,0,1.265-.24,1.633-.688l1.713,1.425c-1.073.944-2.081,1.329-3.474,1.329-2.434,0-4.354-1.873-4.354-4.274ZM620.334,43.778c-.225-.88-.849-1.44-1.681-1.44-.816,0-1.393.528-1.601,1.44h3.281Z"/>
    <path class="uuid-cb4655d3-dbfe-47f9-93f6-c80ca8867345" d="M623.756,47.86l1.137-1.729c1.185.625,1.856.833,2.657.833.736,0,1.185-.256,1.185-.672,0-.32-.24-.496-.769-.592l-1.585-.288c-1.601-.304-2.433-1.121-2.433-2.401,0-1.681,1.297-2.689,3.457-2.689,1.152,0,2.289.32,3.361.944l-1.185,1.648c-.832-.48-1.601-.704-2.368-.704-.625,0-.993.208-.993.56,0,.336.208.48.849.592l1.553.288c1.633.304,2.481,1.137,2.481,2.385,0,1.616-1.521,2.833-3.554,2.833-1.505,0-2.833-.352-3.794-1.008Z"/>
  </g>
  <g>
    <path class="uuid-cb4655d3-dbfe-47f9-93f6-c80ca8867345" d="M510.593,101.988l1.041-1.408c1.44,1.184,2.48,1.632,3.777,1.632,1.473,0,2.497-.752,2.497-1.792,0-.913-.544-1.345-2.033-1.601l-2.064-.353c-1.937-.352-2.881-1.312-2.881-2.849,0-2.033,1.616-3.377,4.129-3.377,1.681,0,3.218.496,4.498,1.44l-.977,1.44c-1.12-.848-2.32-1.296-3.585-1.296-1.345,0-2.241.688-2.241,1.601,0,.816.513,1.232,1.729,1.425l2.001.336c2.257.4,3.313,1.393,3.313,3.089,0,2.065-1.825,3.521-4.498,3.521-1.761,0-3.281-.608-4.706-1.809Z"/>
    <path class="uuid-cb4655d3-dbfe-47f9-93f6-c80ca8867345" d="M521.313,99.619c0-2.353,1.697-4.146,3.906-4.146,2.192,0,3.793,1.745,3.793,4.146v.432h-5.922c.176,1.296,1.152,2.241,2.4,2.241.753,0,1.457-.288,1.905-.752l1.185,1.073c-.977.816-1.953,1.168-3.17,1.168-2.305,0-4.098-1.809-4.098-4.162ZM527.299,98.931c-.191-1.168-1.024-1.985-2.097-1.985-1.088,0-1.889.784-2.097,1.985h4.193Z"/>
    <path class="uuid-cb4655d3-dbfe-47f9-93f6-c80ca8867345" d="M530.513,99.619c0-2.321,1.761-4.146,4.05-4.146,1.249,0,2.401.497,3.201,1.361l-1.12,1.168c-.561-.625-1.249-.944-2.017-.944-1.297,0-2.305,1.12-2.305,2.561,0,1.457,1.008,2.561,2.305,2.561.768,0,1.456-.32,2.017-.929l1.12,1.153c-.8.864-1.952,1.36-3.201,1.36-2.289,0-4.05-1.809-4.05-4.146Z"/>
    <path class="uuid-cb4655d3-dbfe-47f9-93f6-c80ca8867345" d="M539.25,95.602h1.809v1.729c.448-1.216,1.217-1.873,2.209-1.873.305.016.513.048.785.16v1.585c-.288-.112-.656-.192-.993-.192-.88,0-1.601.497-2.001,1.329v5.282h-1.809v-8.019Z"/>
    <path class="uuid-cb4655d3-dbfe-47f9-93f6-c80ca8867345" d="M544.802,99.619c0-2.353,1.697-4.146,3.906-4.146,2.192,0,3.793,1.745,3.793,4.146v.432h-5.922c.176,1.296,1.152,2.241,2.4,2.241.753,0,1.457-.288,1.905-.752l1.185,1.073c-.977.816-1.953,1.168-3.17,1.168-2.305,0-4.098-1.809-4.098-4.162ZM550.788,98.931c-.191-1.168-1.024-1.985-2.097-1.985-1.088,0-1.889.784-2.097,1.985h4.193Z"/>
    <path class="uuid-cb4655d3-dbfe-47f9-93f6-c80ca8867345" d="M555.091,101.54v-4.498h-1.602v-1.44h1.602v-2.209l1.809-.384v2.593h2.225v1.44h-2.225v4.098c0,.784.304,1.088,1.12,1.088.353,0,.608-.048,1.089-.192v1.521c-.465.144-1.073.224-1.553.224-1.617,0-2.465-.769-2.465-2.241Z"/>
  </g>
  <g>
    <path class="uuid-cb4655d3-dbfe-47f9-93f6-c80ca8867345" d="M673.463,98.019c0-3.25,2.529-5.778,5.794-5.778,1.713,0,3.346.736,4.37,2l-1.28,1.249c-.801-.992-1.905-1.521-3.09-1.521-2.177,0-3.825,1.745-3.825,4.05s1.648,4.049,3.825,4.049c1.185,0,2.289-.528,3.09-1.521l1.28,1.249c-1.024,1.265-2.657,2.001-4.37,2.001-3.265,0-5.794-2.529-5.794-5.778Z"/>
    <path class="uuid-cb4655d3-dbfe-47f9-93f6-c80ca8867345" d="M684.727,99.619c0-2.369,1.729-4.146,4.034-4.146,2.289,0,4.018,1.777,4.018,4.146s-1.729,4.146-4.018,4.146c-2.305,0-4.034-1.777-4.034-4.146ZM691.001,99.619c0-1.489-.944-2.609-2.24-2.609-1.312,0-2.257,1.121-2.257,2.609,0,1.504.944,2.609,2.257,2.609,1.296,0,2.24-1.104,2.24-2.609Z"/>
    <path class="uuid-cb4655d3-dbfe-47f9-93f6-c80ca8867345" d="M694.646,95.602h1.809v1.312c.608-.944,1.489-1.441,2.529-1.441,1.648,0,2.802,1.168,2.802,2.865v5.282h-1.825v-4.77c0-1.168-.688-1.921-1.761-1.921-.736,0-1.328.336-1.745.977v5.714h-1.809v-8.019Z"/>
    <path class="uuid-cb4655d3-dbfe-47f9-93f6-c80ca8867345" d="M704.807,97.042h-1.729v-1.44h1.729v-1.377c0-1.745.977-2.689,2.769-2.689.448,0,.896.048,1.201.144v1.537c-.4-.08-.641-.112-.961-.112-.832,0-1.2.368-1.2,1.152v1.345h2.161v1.44h-2.161v6.579h-1.809v-6.579Z"/>
    <path class="uuid-cb4655d3-dbfe-47f9-93f6-c80ca8867345" d="M710.07,92.864c0-.608.496-1.121,1.12-1.121.608,0,1.121.512,1.121,1.121s-.513,1.104-1.121,1.104c-.624,0-1.12-.496-1.12-1.104ZM710.278,95.602h1.809v8.019h-1.809v-8.019Z"/>
    <path class="uuid-cb4655d3-dbfe-47f9-93f6-c80ca8867345" d="M714.854,106.342l.624-1.329c.945.464,1.713.672,2.514.672,1.345,0,2.049-.608,2.049-1.777v-1.36c-.576.704-1.457,1.12-2.465,1.12-2.033,0-3.618-1.809-3.618-4.082s1.649-4.05,3.746-4.05c.928,0,1.761.368,2.353,1.073v-1.008h1.793v8.307c0,2.065-1.345,3.217-3.777,3.217-1.152,0-2.273-.288-3.218-.784ZM720.041,101.284v-3.361c-.465-.544-1.152-.864-1.905-.864-1.376,0-2.4,1.072-2.4,2.545,0,1.457,1.024,2.561,2.4,2.561.784,0,1.44-.32,1.905-.88Z"/>
    <path class="uuid-cb4655d3-dbfe-47f9-93f6-c80ca8867345" d="M724.295,92.416h2.497l3.281,6.803,3.266-6.803h2.496v11.205h-1.809v-8.771l-3.97,7.971-3.985-8.019v8.819h-1.776v-11.205Z"/>
    <path class="uuid-cb4655d3-dbfe-47f9-93f6-c80ca8867345" d="M737.718,101.316c0-1.441,1.185-2.353,3.073-2.353.753,0,1.457.16,2.161.512v-.896c0-1.057-.608-1.601-1.841-1.601-.672,0-1.408.192-2.337.624l-.641-1.312c1.201-.544,2.257-.816,3.33-.816,2.097,0,3.281,1.057,3.281,2.914v5.234h-1.793v-.833c-.688.672-1.457.977-2.385.977-1.681,0-2.85-1.008-2.85-2.449ZM741.063,102.484c.72,0,1.345-.208,1.889-.672v-1.297c-.576-.272-1.152-.384-1.841-.384-1.04,0-1.696.432-1.696,1.152,0,.736.64,1.201,1.648,1.201Z"/>
    <path class="uuid-cb4655d3-dbfe-47f9-93f6-c80ca8867345" d="M746.934,95.602h1.777v1.136c.576-.752,1.473-1.201,2.497-1.201,2.032,0,3.617,1.809,3.617,4.082,0,2.289-1.633,4.082-3.729,4.082-.944,0-1.776-.352-2.354-1.024v4.29h-1.809v-11.364ZM753.049,99.619c0-1.457-1.024-2.561-2.386-2.561-.8,0-1.456.32-1.921.896v3.346c.465.56,1.153.896,1.921.896,1.377,0,2.386-1.104,2.386-2.577Z"/>
  </g>
  <rect class="uuid-98df29eb-7bbc-428c-98f0-770a6bc159e3" x="454.077" y="69.754" width="161.657" height="58.869"/>
  <rect class="uuid-98df29eb-7bbc-428c-98f0-770a6bc159e3" x="633.289" y="69.754" width="161.657" height="58.869"/>
  <g>
    <polyline class="uuid-98df29eb-7bbc-428c-98f0-770a6bc159e3" points="437.644 24 437.644 22.5 439.144 22.5"/>
    <line class="uuid-adf3af3c-fbab-4965-880d-4e0c462537d9" x1="442.154" y1="22.5" x2="807.94" y2="22.5"/>
    <polyline class="uuid-98df29eb-7bbc-428c-98f0-770a6bc159e3" points="809.446 22.5 810.946 22.5 810.946 24"/>
    <line class="uuid-73537859-0127-4ab0-986a-e9718f49f5b7" x1="810.946" y1="26.962" x2="810.946" y2="143.964"/>
    <polyline class="uuid-98df29eb-7bbc-428c-98f0-770a6bc159e3" points="810.946 145.445 810.946 146.945 809.446 146.945"/>
    <line class="uuid-adf3af3c-fbab-4965-880d-4e0c462537d9" x1="806.435" y1="146.945" x2="440.649" y2="146.945"/>
    <polyline class="uuid-98df29eb-7bbc-428c-98f0-770a6bc159e3" points="439.144 146.945 437.644 146.945 437.644 145.445"/>
    <line class="uuid-73537859-0127-4ab0-986a-e9718f49f5b7" x1="437.644" y1="142.483" x2="437.644" y2="25.481"/>
  </g>
  <g>
    <path class="uuid-cb4655d3-dbfe-47f9-93f6-c80ca8867345" d="M454.798,581.162c0-3.266,2.576-5.778,5.906-5.778,1.792,0,3.569.848,4.546,2.177l-1.857,1.761c-.736-.993-1.633-1.489-2.688-1.489-1.745,0-3.058,1.425-3.058,3.33s1.312,3.329,3.058,3.329c1.056,0,1.952-.496,2.688-1.489l1.857,1.761c-.977,1.329-2.754,2.177-4.546,2.177-3.33,0-5.906-2.513-5.906-5.778Z"/>
    <path class="uuid-cb4655d3-dbfe-47f9-93f6-c80ca8867345" d="M466.605,575.368l2.593-.4v11.797h-2.593v-11.396Z"/>
    <path class="uuid-cb4655d3-dbfe-47f9-93f6-c80ca8867345" d="M471.149,584.075v-5.57h2.593v4.818c0,.928.545,1.537,1.377,1.537.561,0,1.009-.224,1.377-.688v-5.666h2.593v8.259h-2.593v-1.345c-.641.96-1.537,1.473-2.609,1.473-1.601,0-2.737-1.168-2.737-2.817Z"/>
    <path class="uuid-cb4655d3-dbfe-47f9-93f6-c80ca8867345" d="M480.429,585.916l1.137-1.729c1.185.625,1.856.833,2.657.833.736,0,1.185-.256,1.185-.672,0-.32-.24-.496-.769-.592l-1.585-.288c-1.601-.304-2.433-1.121-2.433-2.401,0-1.681,1.297-2.689,3.457-2.689,1.152,0,2.289.32,3.361.944l-1.185,1.648c-.832-.48-1.601-.704-2.368-.704-.625,0-.993.208-.993.56,0,.336.208.48.849.592l1.553.288c1.633.304,2.48,1.137,2.48,2.385,0,1.616-1.521,2.833-3.553,2.833-1.505,0-2.833-.352-3.794-1.008Z"/>
    <path class="uuid-cb4655d3-dbfe-47f9-93f6-c80ca8867345" d="M490.205,584.267v-3.761h-1.601v-2.001h1.601v-2.289l2.593-.528v2.817h2.209v2.001h-2.209v3.249c0,.736.288.993,1.089.993.304,0,.544-.032,1.057-.176v2.097c-.48.144-1.249.256-1.777.256-1.952,0-2.961-.896-2.961-2.657Z"/>
    <path class="uuid-cb4655d3-dbfe-47f9-93f6-c80ca8867345" d="M495.997,582.65c0-2.417,1.792-4.273,4.161-4.273,2.385,0,4.065,1.809,4.065,4.37v.56h-5.682c.24.929.992,1.553,1.937,1.553.688,0,1.265-.24,1.633-.688l1.713,1.425c-1.073.944-2.081,1.329-3.474,1.329-2.433,0-4.354-1.873-4.354-4.274ZM501.823,581.834c-.225-.88-.849-1.44-1.681-1.44-.816,0-1.393.528-1.601,1.44h3.281Z"/>
    <path class="uuid-cb4655d3-dbfe-47f9-93f6-c80ca8867345" d="M505.837,578.505h2.593v1.873c.528-1.376,1.265-2.033,2.241-2.033.368.016.544.048.864.208v2.225c-.32-.16-.769-.256-1.217-.256-.769,0-1.473.4-1.889,1.024v5.218h-2.593v-8.259Z"/>
    <path class="uuid-cb4655d3-dbfe-47f9-93f6-c80ca8867345" d="M515.676,585.916l1.137-1.729c1.185.625,1.856.833,2.657.833.736,0,1.185-.256,1.185-.672,0-.32-.24-.496-.769-.592l-1.585-.288c-1.601-.304-2.433-1.121-2.433-2.401,0-1.681,1.297-2.689,3.457-2.689,1.152,0,2.289.32,3.361.944l-1.185,1.648c-.832-.48-1.601-.704-2.368-.704-.625,0-.993.208-.993.56,0,.336.208.48.849.592l1.553.288c1.633.304,2.481,1.137,2.481,2.385,0,1.616-1.521,2.833-3.554,2.833-1.505,0-2.833-.352-3.794-1.008Z"/>
    <path class="uuid-cb4655d3-dbfe-47f9-93f6-c80ca8867345" d="M525.453,584.267v-3.761h-1.601v-2.001h1.601v-2.289l2.593-.528v2.817h2.209v2.001h-2.209v3.249c0,.736.288.993,1.089.993.304,0,.544-.032,1.057-.176v2.097c-.48.144-1.249.256-1.777.256-1.952,0-2.961-.896-2.961-2.657Z"/>
    <path class="uuid-cb4655d3-dbfe-47f9-93f6-c80ca8867345" d="M531.245,582.65c0-2.433,1.856-4.273,4.306-4.273s4.306,1.84,4.306,4.273-1.857,4.274-4.306,4.274-4.306-1.841-4.306-4.274ZM537.327,582.65c0-1.232-.736-2.113-1.776-2.113s-1.777.88-1.777,2.113.736,2.113,1.777,2.113,1.776-.88,1.776-2.113Z"/>
    <path class="uuid-cb4655d3-dbfe-47f9-93f6-c80ca8867345" d="M541.501,578.505h2.593v1.873c.528-1.376,1.265-2.033,2.241-2.033.368.016.544.048.864.208v2.225c-.32-.16-.769-.256-1.217-.256-.769,0-1.473.4-1.889,1.024v5.218h-2.593v-8.259Z"/>
    <path class="uuid-cb4655d3-dbfe-47f9-93f6-c80ca8867345" d="M548.028,584.395c0-1.521,1.185-2.401,3.218-2.401.592,0,1.185.112,1.921.384v-.672c0-.8-.528-1.2-1.633-1.2-.624,0-1.36.176-2.321.576l-.896-1.809c1.36-.608,2.577-.896,3.794-.896,2.289,0,3.617,1.136,3.617,3.105v5.282h-2.561v-.72c-.721.608-1.409.848-2.289.848-1.681,0-2.85-1.024-2.85-2.497ZM551.678,585.18c.545,0,1.041-.144,1.489-.417v-1.056c-.48-.112-.944-.176-1.425-.176-.849,0-1.329.288-1.329.816s.465.833,1.265.833Z"/>
    <path class="uuid-cb4655d3-dbfe-47f9-93f6-c80ca8867345" d="M558.156,589.533l.801-1.873c.912.432,1.729.64,2.529.64,1.232,0,1.872-.512,1.872-1.521v-1.121c-.544.672-1.44,1.088-2.4,1.088-2.033,0-3.649-1.856-3.649-4.162s1.696-4.129,3.841-4.129c.881,0,1.681.368,2.241,1.04v-.992h2.545v8.307c0,2.225-1.536,3.458-4.354,3.458-1.249,0-2.433-.256-3.426-.736ZM563.358,583.979v-2.753c-.399-.417-.944-.641-1.536-.641-1.137,0-1.969.849-1.969,2.017s.848,2.033,1.969,2.033c.624,0,1.137-.224,1.536-.656Z"/>
    <path class="uuid-cb4655d3-dbfe-47f9-93f6-c80ca8867345" d="M567.58,582.65c0-2.417,1.792-4.273,4.161-4.273,2.385,0,4.065,1.809,4.065,4.37v.56h-5.682c.24.929.992,1.553,1.937,1.553.688,0,1.265-.24,1.633-.688l1.713,1.425c-1.073.944-2.081,1.329-3.474,1.329-2.434,0-4.354-1.873-4.354-4.274ZM573.406,581.834c-.225-.88-.849-1.44-1.681-1.44-.816,0-1.393.528-1.601,1.44h3.281Z"/>
  </g>
  <g>
    <g>
      <path class="uuid-2d610cbc-4d6d-4b8b-a5ba-78d93ee460df" d="M608.848,646.171h5.01c2.273,0,3.746,1.424,3.746,3.489,0,2.017-1.473,3.441-3.746,3.441h-3.089v4.273h-1.921v-11.204ZM613.554,651.532c1.36,0,2.112-.752,2.112-1.889,0-1.104-.752-1.856-2.097-1.856h-2.801v3.745h2.785Z"/>
      <path class="uuid-2d610cbc-4d6d-4b8b-a5ba-78d93ee460df" d="M618.463,646.171h2.064l3.441,9.251,3.474-9.251h1.985l-4.386,11.204h-2.226l-4.354-11.204Z"/>
      <path class="uuid-2d610cbc-4d6d-4b8b-a5ba-78d93ee460df" d="M630.335,651.772c0-3.249,2.529-5.778,5.795-5.778,1.712,0,3.345.736,4.369,2.001l-1.28,1.249c-.801-.993-1.905-1.521-3.089-1.521-2.178,0-3.826,1.745-3.826,4.05s1.648,4.05,3.826,4.05c1.184,0,2.288-.528,3.089-1.521l1.28,1.248c-1.024,1.265-2.657,2.001-4.369,2.001-3.266,0-5.795-2.528-5.795-5.778Z"/>
    </g>
    <g>
      <path class="uuid-181baf27-5503-4f0a-a4a0-c0308c642e7e" d="M605.846,616.352v10.192c0,5.629,8.26,10.192,18.449,10.192s18.449-4.563,18.449-10.192v-10.192"/>
      <ellipse class="uuid-181baf27-5503-4f0a-a4a0-c0308c642e7e" cx="624.295" cy="616.352" rx="18.449" ry="10.192"/>
    </g>
  </g>
  <path class="uuid-cb4655d3-dbfe-47f9-93f6-c80ca8867345" d="M939.259,434.863c0,3.417-.015,6.834.012,10.25.006.701-.241,1.108-.851,1.457-5.945,3.406-11.878,6.834-17.803,10.273-.606.352-1.111.325-1.704-.019-5.904-3.426-11.813-6.844-17.736-10.236-.635-.363-.886-.786-.883-1.515.022-6.859.022-13.718,0-20.577-.002-.73.252-1.151.885-1.514,5.923-3.393,11.832-6.81,17.736-10.236.594-.344,1.098-.369,1.704-.017,5.926,3.44,11.858,6.868,17.803,10.273.611.35.855.758.849,1.459-.027,3.468-.012,6.935-.012,10.403ZM937.379,434.835c0-3.161-.011-6.323.011-9.484.004-.52-.148-.819-.612-1.085-5.436-3.115-10.863-6.245-16.276-9.399-.538-.314-.923-.3-1.452.008-5.414,3.152-10.841,6.282-16.275,9.4-.428.246-.602.508-.601,1.014.018,6.323.017,12.645.002,18.968-.001.492.136.774.578,1.028,5.458,3.128,10.907,6.271,16.343,9.435.511.297.878.286,1.383-.007,5.415-3.15,10.843-6.28,16.276-9.398.448-.257.641-.532.636-1.072-.028-3.136-.014-6.272-.014-9.407Z"/>
  <path class="uuid-30d49f96-b45e-4605-9b9e-a5ced2a8b27c" d="M937.379,434.835c0,3.136-.014,6.272.014,9.407.005.539-.188.815-.636,1.072-5.434,3.118-10.861,6.248-16.276,9.398-.505.294-.872.305-1.383.007-5.437-3.164-10.886-6.307-16.343-9.435-.442-.253-.579-.535-.578-1.028.016-6.323.017-12.645-.002-18.968-.001-.507.172-.769.601-1.014,5.434-3.118,10.861-6.248,16.275-9.4.529-.308.913-.321,1.452-.008,5.413,3.154,10.84,6.284,16.276,9.399.464.266.616.565.612,1.085-.023,3.161-.011,6.323-.011,9.484ZM927.623,434.781c-1.115,1.108-2.145,2.127-3.168,3.151-.441.442-.542.946-.089,1.417.453.472.978.4,1.42-.034,1.272-1.25,2.533-2.511,3.782-3.784.432-.44.498-.98.058-1.433-1.295-1.335-2.599-2.663-3.964-3.925-.221-.204-.841-.196-1.15-.038-.593.302-.573.974-.013,1.543.999,1.015,2.02,2.008,3.125,3.103ZM911.939,434.784c1.074-1.064,2.073-2.04,3.055-3.032.587-.593.638-1.173.178-1.596-.431-.397-.978-.322-1.538.233-1.176,1.167-2.349,2.337-3.514,3.514-.632.638-.633,1.123.007,1.771,1.146,1.161,2.3,2.313,3.46,3.46.633.627,1.116.689,1.584.234.48-.467.405-.973-.255-1.632-.955-.953-1.916-1.9-2.977-2.951ZM921.638,430.552c.05-.66-.171-1.049-.753-1.136-.586-.088-.979.137-1.11.76-.625,2.957-1.263,5.911-1.886,8.868-.117.556.112.96.675,1.092.616.144,1.053-.086,1.197-.734.193-.868.373-1.738.557-2.608.447-2.112.894-4.224,1.321-6.243Z"/>
  <path class="uuid-cb4655d3-dbfe-47f9-93f6-c80ca8867345" d="M927.623,434.781c-1.105-1.095-2.126-2.088-3.125-3.103-.56-.569-.58-1.24.013-1.543.309-.158.929-.166,1.15.038,1.365,1.262,2.669,2.59,3.964,3.925.44.454.374.994-.058,1.433-1.249,1.273-2.51,2.534-3.782,3.784-.442.434-.966.506-1.42.034-.453-.471-.352-.976.089-1.417,1.024-1.024,2.053-2.042,3.168-3.151Z"/>
  <path class="uuid-cb4655d3-dbfe-47f9-93f6-c80ca8867345" d="M911.939,434.784c1.061,1.052,2.022,1.999,2.977,2.951.661.659.735,1.165.255,1.632-.468.455-.951.393-1.584-.234-1.159-1.147-2.314-2.299-3.46-3.46-.639-.648-.639-1.132-.007-1.771,1.166-1.177,2.338-2.347,3.514-3.514.56-.556,1.107-.631,1.538-.233.46.424.409,1.003-.178,1.596-.982.992-1.981,1.968-3.055,3.032Z"/>
  <path class="uuid-cb4655d3-dbfe-47f9-93f6-c80ca8867345" d="M921.638,430.552c-.427,2.019-.873,4.131-1.321,6.243-.184.87-.364,1.74-.557,2.608-.144.648-.581.878-1.197.734-.563-.132-.792-.537-.675-1.092.623-2.957,1.262-5.911,1.886-8.868.132-.623.525-.848,1.11-.76.582.087.803.476.753,1.136Z"/>
  <g>
    <path class="uuid-cb4655d3-dbfe-47f9-93f6-c80ca8867345" d="M858.482,469.03h1.873l5.842,8.147-.032-8.147h1.809v11.205h-1.712l-6.003-8.372.032,8.372h-1.809v-11.205Z"/>
    <path class="uuid-cb4655d3-dbfe-47f9-93f6-c80ca8867345" d="M870.065,476.233c0-2.369,1.729-4.146,4.034-4.146,2.289,0,4.018,1.777,4.018,4.146s-1.729,4.146-4.018,4.146c-2.305,0-4.034-1.777-4.034-4.146ZM876.34,476.233c0-1.489-.944-2.609-2.24-2.609-1.312,0-2.257,1.121-2.257,2.609,0,1.504.944,2.609,2.257,2.609,1.296,0,2.24-1.104,2.24-2.609Z"/>
    <path class="uuid-cb4655d3-dbfe-47f9-93f6-c80ca8867345" d="M880.61,478.153v-4.498h-1.602v-1.44h1.602v-2.209l1.809-.384v2.593h2.225v1.44h-2.225v4.098c0,.784.304,1.088,1.12,1.088.353,0,.608-.048,1.089-.192v1.521c-.465.144-1.073.224-1.553.224-1.617,0-2.465-.769-2.465-2.241Z"/>
    <path class="uuid-cb4655d3-dbfe-47f9-93f6-c80ca8867345" d="M885.745,476.233c0-2.353,1.697-4.146,3.906-4.146,2.192,0,3.793,1.745,3.793,4.146v.432h-5.922c.176,1.296,1.152,2.241,2.4,2.241.753,0,1.457-.288,1.905-.752l1.185,1.073c-.977.816-1.953,1.168-3.17,1.168-2.305,0-4.098-1.809-4.098-4.162ZM891.731,475.544c-.191-1.168-1.024-1.985-2.097-1.985-1.088,0-1.889.784-2.097,1.985h4.193Z"/>
    <path class="uuid-cb4655d3-dbfe-47f9-93f6-c80ca8867345" d="M895.281,468.806l1.809-.304v4.786c.561-.704,1.457-1.137,2.466-1.137,2.032,0,3.617,1.809,3.617,4.082,0,2.289-1.633,4.082-3.729,4.082-.944,0-1.776-.384-2.385-1.104v1.024h-1.777v-11.429ZM901.396,476.233c0-1.457-1.024-2.561-2.386-2.561-.8,0-1.456.32-1.921.896v3.346c.465.56,1.153.896,1.921.896,1.377,0,2.386-1.104,2.386-2.577Z"/>
    <path class="uuid-cb4655d3-dbfe-47f9-93f6-c80ca8867345" d="M904.688,476.233c0-2.369,1.729-4.146,4.034-4.146,2.289,0,4.018,1.777,4.018,4.146s-1.729,4.146-4.018,4.146c-2.305,0-4.034-1.777-4.034-4.146ZM910.963,476.233c0-1.489-.944-2.609-2.24-2.609-1.312,0-2.257,1.121-2.257,2.609,0,1.504.944,2.609,2.257,2.609,1.296,0,2.24-1.104,2.24-2.609Z"/>
    <path class="uuid-cb4655d3-dbfe-47f9-93f6-c80ca8867345" d="M914.241,476.233c0-2.369,1.729-4.146,4.034-4.146,2.289,0,4.018,1.777,4.018,4.146s-1.729,4.146-4.018,4.146c-2.305,0-4.034-1.777-4.034-4.146ZM920.516,476.233c0-1.489-.944-2.609-2.24-2.609-1.312,0-2.257,1.121-2.257,2.609,0,1.504.944,2.609,2.257,2.609,1.296,0,2.24-1.104,2.24-2.609Z"/>
    <path class="uuid-cb4655d3-dbfe-47f9-93f6-c80ca8867345" d="M924.16,468.726l1.809-.304v7.203l3.33-3.409h2.081l-3.698,3.713,3.89,4.306h-2.305l-3.298-3.697v3.697h-1.809v-11.509Z"/>
    <path class="uuid-cb4655d3-dbfe-47f9-93f6-c80ca8867345" d="M936.192,469.478c0-.608.496-1.121,1.12-1.121.608,0,1.121.512,1.121,1.121s-.513,1.104-1.121,1.104c-.624,0-1.12-.496-1.12-1.104ZM936.4,472.215h1.809v8.019h-1.809v-8.019Z"/>
    <path class="uuid-cb4655d3-dbfe-47f9-93f6-c80ca8867345" d="M940.448,472.215h1.809v1.264c.593-.912,1.393-1.393,2.369-1.393,1.104,0,1.953.592,2.369,1.537.624-1.008,1.521-1.537,2.657-1.537,1.553,0,2.625,1.201,2.625,2.897v5.25h-1.809v-4.85c0-1.12-.624-1.841-1.617-1.841-.656,0-1.2.304-1.601.96.017.16.032.32.032.48v5.25h-1.824v-4.85c0-1.12-.625-1.841-1.617-1.841-.656,0-1.185.304-1.585.929v5.762h-1.809v-8.019Z"/>
    <path class="uuid-cb4655d3-dbfe-47f9-93f6-c80ca8867345" d="M954.048,477.93c0-1.441,1.185-2.353,3.073-2.353.753,0,1.457.16,2.161.512v-.896c0-1.057-.608-1.601-1.841-1.601-.672,0-1.408.192-2.337.624l-.641-1.312c1.201-.544,2.257-.816,3.33-.816,2.097,0,3.281,1.057,3.281,2.914v5.234h-1.793v-.833c-.688.672-1.457.977-2.385.977-1.681,0-2.85-1.008-2.85-2.449ZM957.394,479.098c.72,0,1.345-.208,1.889-.672v-1.297c-.576-.272-1.152-.384-1.841-.384-1.04,0-1.696.432-1.696,1.152,0,.736.64,1.201,1.648,1.201Z"/>
    <path class="uuid-cb4655d3-dbfe-47f9-93f6-c80ca8867345" d="M963.792,482.956l.624-1.329c.945.464,1.713.672,2.514.672,1.345,0,2.049-.608,2.049-1.777v-1.36c-.576.704-1.457,1.12-2.465,1.12-2.033,0-3.618-1.809-3.618-4.082s1.649-4.05,3.746-4.05c.928,0,1.761.368,2.353,1.073v-1.008h1.793v8.307c0,2.065-1.345,3.217-3.777,3.217-1.152,0-2.273-.288-3.218-.784ZM968.979,477.897v-3.361c-.465-.544-1.152-.864-1.905-.864-1.376,0-2.4,1.072-2.4,2.545,0,1.457,1.024,2.561,2.4,2.561.784,0,1.44-.32,1.905-.88Z"/>
    <path class="uuid-cb4655d3-dbfe-47f9-93f6-c80ca8867345" d="M972.64,476.233c0-2.353,1.697-4.146,3.906-4.146,2.192,0,3.793,1.745,3.793,4.146v.432h-5.922c.176,1.296,1.152,2.241,2.4,2.241.753,0,1.457-.288,1.905-.752l1.185,1.073c-.977.816-1.953,1.168-3.17,1.168-2.305,0-4.098-1.809-4.098-4.162ZM978.626,475.544c-.191-1.168-1.024-1.985-2.097-1.985-1.088,0-1.889.784-2.097,1.985h4.193Z"/>
  </g>
</svg>